<?xml version="1.0" encoding="UTF-8"?>
<svg version="1.1" xmlns="http://www.w3.org/2000/svg" width="450" height="112">
<path d="M0 0 C148.5 0 297 0 450 0 C450 36.96 450 73.92 450 112 C301.5 112 153 112 0 112 C0 75.04 0 38.08 0 0 Z " fill="#0F255D" transform="translate(0,0)"/>
<path d="M0 0 C4.9467195 3.916652 8.77130993 8.96255882 9.61328125 15.27734375 C10.33291609 22.35375303 8.70119741 27.41930121 4.61328125 33.27734375 C-2.06560685 39.70934688 -7.74243453 40.64475399 -16.8671875 40.55078125 C-23.45451038 40.03900256 -27.36522902 37.6570502 -31.76171875 32.83984375 C-36.37202622 26.90156729 -37.12064835 21.69818752 -36.38671875 14.27734375 C-34.28215371 7.37904722 -30.41503145 2.23312904 -24.38671875 -1.66015625 C-16.84231047 -4.34858682 -6.9186641 -4.16305056 0 0 Z " fill="#F4F6F9" transform="translate(368.38671875,43.72265625)"/>
<path d="M0 0 C4.94895464 3.00548104 8.39324937 7.12338505 10.875 12.3125 C12.43981746 20.13658732 11.89308687 26.60380931 7.5 33.4375 C3.18776327 38.21979097 -1.26835677 41.10545541 -7.76953125 41.7734375 C-20.78627209 41.91695173 -20.78627209 41.91695173 -26.5 37.4375 C-31.42494164 32.51255836 -34.14003471 27.5743404 -34.9375 20.625 C-34.66391075 14.75423058 -32.725588 9.00061793 -28.8515625 4.5390625 C-21.10457877 -2.39601027 -9.69231567 -4.36810358 0 0 Z " fill="#F3F5F8" transform="translate(255.5,42.5625)"/>
<path d="M0 0 C0.66 0 1.32 0 2 0 C2.4846875 1.22332031 2.969375 2.44664063 3.46875 3.70703125 C4.14539624 5.409028 4.82251615 7.11083649 5.5 8.8125 C5.85513672 9.70509521 6.21027344 10.59769043 6.57617188 11.51733398 C9.45798742 18.7250383 12.45649837 25.8785346 15.56054688 32.9934082 C15.88087891 33.73937256 16.20121094 34.48533691 16.53125 35.25390625 C16.81548828 35.90689697 17.09972656 36.5598877 17.39257812 37.23266602 C18 39 18 39 18 42 C18.66 42 19.32 42 20 42 C20.52400391 40.28296875 20.52400391 40.28296875 21.05859375 38.53125 C23.32059391 31.75189074 26.23035822 25.24382719 29.09790039 18.70410156 C30.07103859 16.4804894 31.03279815 14.25217055 31.99414062 12.0234375 C32.6112985 10.6090778 33.22911285 9.19500432 33.84765625 7.78125 C34.13415543 7.11468384 34.4206546 6.44811768 34.71583557 5.76135254 C36.77091001 1.114545 36.77091001 1.114545 39 0 C40.30580525 7.52737942 41.60981396 15.05506816 42.91151428 22.58315849 C43.51596811 26.07854275 44.12104598 29.57381661 44.72753906 33.06884766 C45.42437246 37.08464287 46.11851107 41.10089974 46.8125 45.1171875 C47.03123779 46.37554413 47.24997559 47.63390076 47.4753418 48.9303894 C47.67554932 50.09144196 47.87575684 51.25249451 48.08203125 52.44873047 C48.34850464 53.98761429 48.34850464 53.98761429 48.62036133 55.55758667 C49 58 49 58 49 60 C45.7 60 42.4 60 39 60 C38.5387729 57.6046939 38.08102024 55.20879868 37.625 52.8125 C37.49867187 52.15830078 37.37234375 51.50410156 37.2421875 50.83007812 C35.99402615 44.24602699 34.99470021 37.62643994 34 31 C32.16529042 35.2168268 30.33224404 39.43437112 28.50073242 43.65258789 C27.87749107 45.08735662 27.2537964 46.52192851 26.62963867 47.95629883 C25.73236634 50.01852617 24.83672879 52.08145678 23.94140625 54.14453125 C23.6622084 54.78526077 23.38301056 55.4259903 23.09535217 56.08613586 C21.96046423 58.70487997 20.90319256 61.29042233 20 64 C19.34 64 18.68 64 18 64 C13.71 53.44 9.42 42.88 5 32 C3.35462169 33.64537831 3.43964532 35.73261715 3.0625 37.98828125 C2.88976562 39.00470703 2.71703125 40.02113281 2.5390625 41.06835938 C2.36117187 42.13892578 2.18328125 43.20949219 2 44.3125 C1.64714971 46.41298197 1.2930325 48.51325161 0.9375 50.61328125 C0.78152344 51.54954346 0.62554687 52.48580566 0.46484375 53.45043945 C0.06357925 55.65128252 -0.45741775 57.82967102 -1 60 C-4.3 60 -7.6 60 -11 60 C-8.86713433 47.54835406 -6.67535114 35.10939614 -4.375 22.6875 C-4.16915283 21.57463623 -3.96330566 20.46177246 -3.7512207 19.31518555 C-2.55177109 12.86613994 -1.30672396 6.42818069 0 0 Z " fill="#F3F6F9" transform="translate(83,24)"/>
<path d="M0 0 C1 1 1 1 1.09765625 3.50390625 C1.08605469 4.51324219 1.07445312 5.52257812 1.0625 6.5625 C1.05347656 7.57441406 1.04445313 8.58632813 1.03515625 9.62890625 C1.02355469 10.41136719 1.01195312 11.19382812 1 12 C-1.84186338 10.88649305 -4.56852689 9.72110001 -7.3125 8.375 C-12.25819884 6.53084111 -16.28474864 5.79816743 -21.14453125 7.94921875 C-26.87160853 11.31746271 -31.1715754 15.4481452 -33 22 C-33.65299973 28.5299973 -32.42873888 33.37420514 -29 39 C-24.41996403 43.46553507 -20.50380028 45.28815343 -14.125 45.3125 C-9.31676986 45.24222136 -6.12049087 44.6413403 -2 42 C-1.01 41.67 -0.02 41.34 1 41 C1 44.63 1 48.26 1 52 C-7.69298246 55.92036464 -15.80160412 57.77142252 -25.0625 54.4375 C-33.71465846 50.5950818 -39.26818115 44.66486694 -43 36 C-45.37618093 28.39926742 -44.57804295 20.52768202 -41.3203125 13.3515625 C-36.9460264 5.56067423 -30.65460126 0.13654887 -22.08984375 -2.61328125 C-14.29468777 -4.05574937 -7.13019302 -3.36329859 0 0 Z " fill="#F3F6F8" transform="translate(320,29)"/>
<path d="M0 0 C3.3 0 6.6 0 10 0 C10.02505615 0.82201904 10.0501123 1.64403809 10.07592773 2.4909668 C10.19212655 6.22329374 10.31474505 9.95538317 10.4375 13.6875 C10.47681641 14.98107422 10.51613281 16.27464844 10.55664062 17.60742188 C10.61948242 19.47817383 10.61948242 19.47817383 10.68359375 21.38671875 C10.72025146 22.53358154 10.75690918 23.68044434 10.79467773 24.86206055 C10.95270193 28.33409273 10.95270193 28.33409273 12 33 C15.63 33 19.26 33 23 33 C23.81136248 28.94318759 24.1854348 25.48425402 24.31640625 21.38671875 C24.35830078 20.13955078 24.40019531 18.89238281 24.44335938 17.60742188 C24.48267578 16.31384766 24.52199219 15.02027344 24.5625 13.6875 C24.60568359 12.37458984 24.64886719 11.06167969 24.69335938 9.70898438 C24.79927227 6.47275712 24.90134885 3.23645542 25 0 C28.3 0 31.6 0 35 0 C35.07449251 4.44739413 35.12876257 8.8944519 35.16479492 13.34228516 C35.17982543 14.85341727 35.20025564 16.36450618 35.22631836 17.87548828 C35.26295689 20.05512187 35.27978338 22.23417575 35.29296875 24.4140625 C35.3086792 25.7232666 35.32438965 27.0324707 35.34057617 28.38134766 C34.85338663 33.55778025 33.30575439 36.79217719 29.5 40.3125 C23.8979825 44.09386181 17.51978043 43.55052428 11 43 C6.65569337 41.75876954 4.39575499 39.58141617 1.84082031 35.82788086 C-0.27080656 31.9644922 -0.46161856 28.73575528 -0.390625 24.31640625 C-0.38496521 23.61603745 -0.37930542 22.91566864 -0.37347412 22.19407654 C-0.3512922 19.98282055 -0.30113806 17.77325627 -0.25 15.5625 C-0.22991115 14.05275797 -0.21166458 12.54299025 -0.1953125 11.03320312 C-0.15148947 7.35493001 -0.08259341 3.67763044 0 0 Z " fill="#F6F9FB" transform="translate(141,41)"/>
<path d="M0 0 C3.63 0 7.26 0 11 0 C11.09938176 6.24385004 11.17171075 12.48723272 11.21972656 18.73168945 C11.23975746 20.85286487 11.26699025 22.97398565 11.30175781 25.0949707 C11.35065214 28.15589941 11.37305452 31.21609376 11.390625 34.27734375 C11.41127014 35.21521225 11.43191528 36.15308075 11.45318604 37.11936951 C11.45532702 43.49898212 10.26705744 48.47411328 7 54 C3.5489685 57.4510315 0.43506386 57.89169329 -4.3125 58.25 C-8.68985501 57.95323017 -11.15523084 57.07617535 -15 55 C-15.495 53.515 -15.495 53.515 -16 52 C-14.0625 48.8125 -14.0625 48.8125 -12 46 C-8.7 46.33 -5.4 46.66 -2 47 C-0.83574024 44.67148048 -0.84542008 43.23719816 -0.79467773 40.64208984 C-0.77473251 39.74130707 -0.75478729 38.84052429 -0.73423767 37.91244507 C-0.71752518 36.93844757 -0.70081268 35.96445007 -0.68359375 34.9609375 C-0.66281265 33.96494537 -0.64203156 32.96895325 -0.62062073 31.94277954 C-0.55510958 28.75359146 -0.49623296 25.56431942 -0.4375 22.375 C-0.39431627 20.21613707 -0.35070203 18.0572827 -0.30664062 15.8984375 C-0.19942658 10.5990449 -0.09816352 5.29956766 0 0 Z " fill="#F2F5F7" transform="translate(199,27)"/>
<path d="M0 0 C15.93972246 -0.80594102 15.93972246 -0.80594102 22 4 C27.39530451 8.99610037 29.9644415 13.90961709 30.375 21.3125 C30.20334957 27.31016787 28.36861716 32.53501511 24.17578125 36.8984375 C22.49706295 38.34901356 20.80300211 39.70852377 19 41 C14.25 39.125 14.25 39.125 12 38 C12.32563827 34.30943296 12.91184921 33.09030081 15.5625 30.375 C18.76016686 26.78578209 18.70258336 23.21949284 18.5 18.56640625 C17.77004974 14.81970846 16.04881937 13.17772812 13 11 C10.13099945 9.56549973 7.26527087 9.62088917 4.09375 9.37890625 C2 9 2 9 0 7 C-0.99 7 -1.98 7 -3 7 C-3.66 6.34 -4.32 5.68 -5 5 C-4.360625 4.731875 -3.72125 4.46375 -3.0625 4.1875 C-0.66868314 3.11332248 -0.66868314 3.11332248 0 0 Z M-7 5 C-6.34 5.66 -5.68 6.32 -5 7 C-6.32 7.33 -7.64 7.66 -9 8 C-8.34 7.01 -7.68 6.02 -7 5 Z " fill="#F4F7F9" transform="translate(237,41)"/>
<path d="M0 0 C3.66422065 2.13746204 5.37726527 4.14776887 7 8 C7.73651586 12.71027588 7.42246633 16.17015542 5.25 20.4375 C2.65393889 23.39412515 0.73176435 24.70087707 -3.1484375 25.37109375 C-7.24855334 25.49337791 -10.12677395 25.39925893 -13.4375 22.8125 C-16.39643327 19.56489032 -17.96379339 17.53963529 -18.02734375 13.08203125 C-17.67564343 8.27546021 -16.48949116 5.48949116 -13 2 C-8.7567553 -0.8288298 -4.98265471 -0.65268001 0 0 Z " fill="#121F43" transform="translate(360,50)"/>
<path d="M0 0 C3.8026029 2.0050088 5.61790841 3.42686262 8 7 C8.65192402 11.37132214 9.00981874 15.99201428 6.984375 20.01953125 C4.86447542 22.64386477 3.20940964 23.93019679 0 25 C-5.30585376 25.34231315 -8.73795828 25.53140599 -13 22 C-16.15122435 18.30546111 -16.51593499 14.91554963 -16.359375 10.21875 C-15.80079406 6.77011984 -14.23593827 4.61924197 -12 2 C-7.96127401 -0.69248399 -4.74486631 -0.67205444 0 0 Z " fill="#112253" transform="translate(248,50)"/>
<path d="M0 0 C0.66 0.33 1.32 0.66 2 1 C1.855625 1.53367188 1.71125 2.06734375 1.5625 2.6171875 C-0.48674195 10.84261699 -1.62418239 18.60914793 2.7265625 26.24609375 C5.63036815 30.24550706 9.44155574 33.07142743 14 35 C14 36.32 14 37.64 14 39 C12.35 38.67 10.7 38.34 9 38 C8.505 38.99 8.505 38.99 8 40 C6.35 39.34 4.7 38.68 3 38 C3 34.89448334 3.5393715 33.64738916 5 31 C3.88625 31.2475 3.88625 31.2475 2.75 31.5 C0 32 0 32 -4 32 C-4.66 32.66 -5.32 33.32 -6 34 C-5.67 34.99 -5.34 35.98 -5 37 C-6.0625 38.5625 -6.0625 38.5625 -8 40 C-11.6875 39.6875 -11.6875 39.6875 -15 39 C-14.67 38.01 -14.34 37.02 -14 36 C-15.485 35.505 -15.485 35.505 -17 35 C-15.35 34.34 -13.7 33.68 -12 33 C-12 29.37 -12 25.74 -12 22 C-12.928125 22.639375 -13.85625 23.27875 -14.8125 23.9375 C-20.61281556 27.69064536 -26.25226365 27.7611515 -33 27 C-38.05472172 25.03834471 -42.23129178 21.69476611 -45 17 C-44.75 14.6875 -44.75 14.6875 -44 13 C-43.67 13.99 -43.34 14.98 -43 16 C-41.35 16 -39.7 16 -38 16 C-37.67 18.31 -37.34 20.62 -37 23 C-34.87630763 23.36192504 -32.7509887 23.71431747 -30.625 24.0625 C-29.44164062 24.25972656 -28.25828125 24.45695312 -27.0390625 24.66015625 C-24.08549099 25.26934687 -24.08549099 25.26934687 -22 24 C-21.34786708 21.97536745 -21.34786708 21.97536745 -21 20 C-20.34 20 -19.68 20 -19 20 C-19 19.34 -19 18.68 -19 18 C-16.69 18.33 -14.38 18.66 -12 19 C-12.33 18.67 -12.66 18.34 -13 18 C-12.34 17.34 -11.68 16.68 -11 16 C-7.875 16.375 -7.875 16.375 -5 17 C-4.96132813 15.66195312 -4.96132813 15.66195312 -4.921875 14.296875 C-4.83679688 12.54117188 -4.83679688 12.54117188 -4.75 10.75 C-4.70359375 9.58984375 -4.6571875 8.4296875 -4.609375 7.234375 C-3.91208725 3.53338618 -2.88214816 2.32877571 0 0 Z " fill="#121E46" transform="translate(333,48)"/>
<path d="M0 0 C0.598125 0.20625 1.19625 0.4125 1.8125 0.625 C1.35359375 1.08648437 0.8946875 1.54796875 0.421875 2.0234375 C-5.75457224 8.58915662 -9.34517687 15.03436103 -9.5625 24.1875 C-9.41250545 28.58734019 -8.66582425 32.62800427 -7.4296875 36.84765625 C-7.34976562 37.43417969 -7.26984375 38.02070312 -7.1875 38.625 C-7.8475 39.285 -8.5075 39.945 -9.1875 40.625 C-10.1775 40.625 -11.1675 40.625 -12.1875 40.625 C-13.1775 41.12 -13.1775 41.12 -14.1875 41.625 C-14.1875 43.275 -14.1875 44.925 -14.1875 46.625 C-16.1675 47.12 -16.1675 47.12 -18.1875 47.625 C-18.1875 46.635 -18.1875 45.645 -18.1875 44.625 C-18.785625 45.223125 -19.38375 45.82125 -20 46.4375 C-21.2501736 47.6876736 -22.51335835 48.92579233 -23.8125 50.125 C-25.37032079 51.82444086 -26.24827341 53.52980222 -27.1875 55.625 C-27.8475 55.625 -28.5075 55.625 -29.1875 55.625 C-29.1875 54.965 -29.1875 54.305 -29.1875 53.625 C-30.6725 54.12 -30.6725 54.12 -32.1875 54.625 C-32.1875 53.305 -32.1875 51.985 -32.1875 50.625 C-30.578125 49.23828125 -30.578125 49.23828125 -28.4375 47.9375 C-24.28476843 45.06647571 -22.73994525 42.38044294 -21.07421875 37.67578125 C-20.08712381 35.39285243 -19.10608992 34.19303275 -17.1875 32.625 C-15.7025 32.13 -15.7025 32.13 -14.1875 31.625 C-13.2432408 29.85415167 -13.2432408 29.85415167 -13.1875 27.625 C-13.84007873 25.952767 -14.50617549 24.28572849 -15.1875 22.625 C-14.8575 21.635 -14.5275 20.645 -14.1875 19.625 C-14.084375 18.67625 -13.98125 17.7275 -13.875 16.75 C-12.88464018 12.24836447 -10.37563057 9.81313057 -7.1875 6.625 C-6.878125 5.8 -6.56875 4.975 -6.25 4.125 C-4.90541406 0.96126839 -3.5947769 -0.61624747 0 0 Z " fill="#0D1C4A" transform="translate(286.1875,31.375)"/>
<path d="M0 0 C0.33 0.66 0.66 1.32 1 2 C1.66 2 2.32 2 3 2 C3 11.9 3 21.8 3 32 C3.66 32.33 4.32 32.66 5 33 C3.13637352 37.09997826 1.27971601 39.93187857 -2 43 C-2.66 43.99 -3.32 44.98 -4 46 C-7.125 46.1875 -7.125 46.1875 -10 46 C-10.33 45.34 -10.66 44.68 -11 44 C-11.33 44.99 -11.66 45.98 -12 47 C-13.02104551 46.02149805 -14.0206121 45.02019573 -15 44 C-15 43.67 -15 43.34 -15 43 C-11.7 43 -8.4 43 -5 43 C-5.22816406 42.14277344 -5.45632812 41.28554687 -5.69140625 40.40234375 C-8.71529471 28.3745901 -8.71529471 28.3745901 -7 23 C-4.9375 20.5625 -4.9375 20.5625 -3 19 C-2.67 21.31 -2.34 23.62 -2 26 C-0.25493385 24.25493385 -0.76717216 21.80960857 -0.68359375 19.43359375 C-0.64169922 18.30888672 -0.59980469 17.18417969 -0.55664062 16.02539062 C-0.51732422 14.84138672 -0.47800781 13.65738281 -0.4375 12.4375 C-0.39431641 11.24962891 -0.35113281 10.06175781 -0.30664062 8.83789062 C-0.20016454 5.89205216 -0.09815159 2.9461257 0 0 Z " fill="#122968" transform="translate(137,41)"/>
<path d="M0 0 C2.93758059 2.93758059 4.09583341 6.45424199 5.6875 10.25 C6.02072266 11.00152344 6.35394531 11.75304687 6.69726562 12.52734375 C8.61225749 17.08988154 9.42442503 20.05779602 8 25 C6.02 25.33 4.04 25.66 2 26 C1.67 27.32 1.34 28.64 1 30 C-0.32 30 -1.64 30 -3 30 C-3.226875 30.61875 -3.45375 31.2375 -3.6875 31.875 C-5.37929835 34.61410209 -6.99244161 35.05024472 -10 36 C-11.65 34.35 -13.3 32.7 -15 31 C-11.7 31 -8.4 31 -5 31 C-4.9175 29.5975 -4.835 28.195 -4.75 26.75 C-3.95471967 17.71703984 -1.87331069 8.85884588 0 0 Z " fill="#193272" transform="translate(87,54)"/>
<path d="M0 0 C0.33 0 0.66 0 1 0 C1.09938176 6.24385004 1.17171075 12.48723272 1.21972656 18.73168945 C1.23975746 20.85286487 1.26699025 22.97398565 1.30175781 25.0949707 C1.35065214 28.15589941 1.37305452 31.21609376 1.390625 34.27734375 C1.41127014 35.21521225 1.43191528 36.15308075 1.45318604 37.11936951 C1.45532702 43.49898212 0.26705744 48.47411328 -3 54 C-6.4510315 57.4510315 -9.56493614 57.89169329 -14.3125 58.25 C-18.68985501 57.95323017 -21.15523084 57.07617535 -25 55 C-25.495 53.515 -25.495 53.515 -26 52 C-24.0625 48.8125 -24.0625 48.8125 -22 46 C-18.7 46.33 -15.4 46.66 -12 47 C-11.67 46.34 -11.34 45.68 -11 45 C-10.01 45.33 -9.02 45.66 -8 46 C-8.33 47.65 -8.66 49.3 -9 51 C-5.80869 51 -4.54714915 50.86790938 -2 49 C-0.72498779 43.74676211 -0.78237848 38.38433286 -0.68359375 33.0078125 C-0.66281265 32.06187225 -0.64203156 31.11593201 -0.62062073 30.1413269 C-0.55552415 27.13595459 -0.49642664 24.13049899 -0.4375 21.125 C-0.3942768 19.08072074 -0.35066132 17.03644974 -0.30664062 14.9921875 C-0.1998839 9.99487584 -0.09850529 4.99748084 0 0 Z " fill="#BFC6D5" transform="translate(209,27)"/>
<path d="M0 0 C3.42472947 1.49483306 6.47096553 3.09522702 9.5859375 5.171875 C9.5859375 3.191875 9.5859375 1.211875 9.5859375 -0.828125 C9.9159375 -0.828125 10.2459375 -0.828125 10.5859375 -0.828125 C11.0809375 1.646875 11.0809375 1.646875 11.5859375 4.171875 C12.9059375 4.171875 14.2259375 4.171875 15.5859375 4.171875 C15.96656971 6.4979607 16.29863695 8.83242764 16.5859375 11.171875 C15.5859375 12.171875 15.5859375 12.171875 12.0234375 12.234375 C10.8890625 12.21375 9.7546875 12.193125 8.5859375 12.171875 C8.2559375 11.511875 7.9259375 10.851875 7.5859375 10.171875 C6.2659375 10.501875 4.9459375 10.831875 3.5859375 11.171875 C3.2559375 9.521875 2.9259375 7.871875 2.5859375 6.171875 C1.9259375 6.171875 1.2659375 6.171875 0.5859375 6.171875 C0.5859375 5.181875 0.5859375 4.191875 0.5859375 3.171875 C-0.5278125 3.48125 -0.5278125 3.48125 -1.6640625 3.796875 C-4.73737091 4.21596251 -5.84193116 3.79136511 -8.4140625 2.171875 C-11.71160579 4.24242544 -14.30203453 6.0571797 -17.0390625 8.859375 C-19.32110849 11.08136715 -20.32086093 11.82818594 -23.4140625 12.171875 C-22.03019275 6.94392263 -18.65444961 4.22244885 -14.4140625 1.171875 C-9.69093881 -1.55478153 -5.11000136 -1.75294545 0 0 Z " fill="#0F1D44" transform="translate(311.4140625,35.828125)"/>
<path d="M0 0 C6.47271382 -0.18852565 11.86015656 -0.24628418 18 2 C19.67225729 1.69595322 21.34080104 1.36871088 23 1 C25 3 25 3 25 7 C25.33 7.99 25.66 8.98 26 10 C26.66 9.67 27.32 9.34 28 9 C30.625 9.9375 30.625 9.9375 33 11 C32.67 11.66 32.34 12.32 32 13 C31.77412147 14.49470236 31.59130069 15.99617102 31.4375 17.5 C31.35371094 18.2940625 31.26992188 19.088125 31.18359375 19.90625 C30.92944508 22.80462635 31.04953302 24.14859907 32 27 C32 27.99 32 28.98 32 30 C29.8614515 32.1385485 28.86724686 32.42655063 26 33 C26.02320313 32.13117188 26.04640625 31.26234375 26.0703125 30.3671875 C26.08835937 29.21476562 26.10640625 28.06234375 26.125 26.875 C26.14820313 25.73804687 26.17140625 24.60109375 26.1953125 23.4296875 C25.8471874 17.31661079 23.75260587 12.79499639 20 8 C13.5334337 3.04688539 7.93618912 1.65702655 0 1 C0 0.67 0 0.34 0 0 Z " fill="#111D43" transform="translate(351,39)"/>
<path d="M0 0 C0.99 0 1.98 0 3 0 C4.45204256 3.40179783 5.35494687 5.6255438 4.41503906 9.26513672 C3.40853186 11.71045256 2.30373809 14.07048711 1.125 16.4375 C0.73441406 17.26443359 0.34382813 18.09136719 -0.05859375 18.94335938 C-1.02025544 20.97223099 -2.00064236 22.98950135 -3 25 C-3.66 25 -4.32 25 -5 25 C-6.98 19.72 -8.96 14.44 -11 9 C-7.71299843 7.35649921 -5.52069985 6.58678331 -2 6 C-1.34 4.02 -0.68 2.04 0 0 Z " fill="#142D6E" transform="translate(106,41)"/>
<path d="M0 0 C0.66 0.33 1.32 0.66 2 1 C0.35 10.57 -1.3 20.14 -3 30 C-3.33 29.01 -3.66 28.02 -4 27 C-4.66 26.67 -5.32 26.34 -6 26 C-6.05390357 23.06225537 -6.0936255 20.12549768 -6.125 17.1875 C-6.14175781 16.35412109 -6.15851563 15.52074219 -6.17578125 14.66210938 C-6.18222656 13.85966797 -6.18867187 13.05722656 -6.1953125 12.23046875 C-6.20578613 11.49207764 -6.21625977 10.75368652 -6.22705078 9.99291992 C-6 8 -6 8 -4 5 C-3.34 5.33 -2.68 5.66 -2 6 C-2 4.35 -2 2.7 -2 1 C-1.34 0.67 -0.68 0.34 0 0 Z " fill="#162D73" transform="translate(78,42)"/>
<path d="M0 0 C0.66 0.33 1.32 0.66 2 1 C2 2.65 2 4.3 2 6 C1.01 6.33 0.02 6.66 -1 7 C-1 8.32 -1 9.64 -1 11 C-1.66 11.66 -2.32 12.32 -3 13 C-3.99 12.67 -4.98 12.34 -6 12 C-6.99 12.33 -7.98 12.66 -9 13 C-11.23786817 12.75754106 -13.46775934 12.43611971 -15.6875 12.0625 C-16.86699219 11.86785156 -18.04648437 11.67320313 -19.26171875 11.47265625 C-20.16535156 11.31667969 -21.06898438 11.16070312 -22 11 C-22 10.67 -22 10.34 -22 10 C-20.7315625 9.77957031 -20.7315625 9.77957031 -19.4375 9.5546875 C-11.3867234 7.9628294 -5.82496004 5.82496004 0 0 Z " fill="#131C43" transform="translate(374,75)"/>
<path d="M0 0 C0.89203125 0.01804688 1.7840625 0.03609375 2.703125 0.0546875 C3.71632812 0.08949219 3.71632812 0.08949219 4.75 0.125 C4.75 0.785 4.75 1.445 4.75 2.125 C1.45 2.125 -1.85 2.125 -5.25 2.125 C-5.24476318 2.95749268 -5.23952637 3.78998535 -5.23413086 4.64770508 C-5.21707775 7.73949935 -5.20454435 10.83126964 -5.19506836 13.9230957 C-5.18757271 15.91814768 -5.17486655 17.91317786 -5.16210938 19.90820312 C-5.15888672 21.16181641 -5.15566406 22.41542969 -5.15234375 23.70703125 C-5.14710693 24.86436768 -5.14187012 26.0217041 -5.13647461 27.21411133 C-5.25 30.125 -5.25 30.125 -6.25 33.125 C-7.24 32.795 -8.23 32.465 -9.25 32.125 C-9.08628906 31.16464844 -8.92257813 30.20429687 -8.75390625 29.21484375 C-8.10905182 24.70086275 -8.13982338 20.23878358 -8.1875 15.6875 C-8.19201172 14.86056641 -8.19652344 14.03363281 -8.20117188 13.18164062 C-8.21284189 11.16272854 -8.23077282 9.14385426 -8.25 7.125 C-8.91 7.125 -9.57 7.125 -10.25 7.125 C-10 4.75 -10 4.75 -9.25 2.125 C-6.16872876 0.0521448 -3.65291922 -0.09612945 0 0 Z " fill="#182958" transform="translate(171.25,38.875)"/>
<path d="M0 0 C0.99 0 1.98 0 3 0 C4.24674659 3.74023976 3.76679965 6.16600177 3 10 C2.34 10.66 1.68 11.32 1 12 C0.814375 13.485 0.814375 13.485 0.625 15 C0 18 0 18 -2.0625 19.375 C-2.701875 19.58125 -3.34125 19.7875 -4 20 C-4 18.68 -4 17.36 -4 16 C-4.66 16 -5.32 16 -6 16 C-5.45269624 12.07765636 -4.82170566 8.54220546 -3 5 C-2.01 4.67 -1.02 4.34 0 4 C0 2.68 0 1.36 0 0 Z " fill="#FCFDF8" transform="translate(83,48)"/>
<path d="M0 0 C5.94 1.485 5.94 1.485 12 3 C11.01 3.495 11.01 3.495 10 4 C9.566875 4.99 9.566875 4.99 9.125 6 C8 8 8 8 5.9375 8.625 C5.298125 8.74875 4.65875 8.8725 4 9 C3.67 9.66 3.34 10.32 3 11 C0.0625 10.1875 0.0625 10.1875 -3 9 C-3.33 8.01 -3.66 7.02 -4 6 C-2.0625 2.8125 -2.0625 2.8125 0 0 Z " fill="#F8FAF8" transform="translate(187,73)"/>
<path d="M0 0 C3.55735876 0.76209047 3.55735876 0.76209047 5.75 -0.5625 C6.41 1.0875 7.07 2.7375 7.75 4.4375 C6.96625 4.89125 6.1825 5.345 5.375 5.8125 C2.71301969 7.32178742 2.71301969 7.32178742 0.75 9.4375 C0.60111328 8.49970703 0.60111328 8.49970703 0.44921875 7.54296875 C-0.11266518 5.04003404 -0.11266518 5.04003404 -3.4375 3.75 C-9.4883662 1.71460808 -15.92238371 1.69522594 -22.25 1.4375 C-16.20994968 -2.58920022 -7.01251028 -0.86799801 0 0 Z " fill="#182244" transform="translate(320.25,24.5625)"/>
<path d="M0 0 C0.99 0.99 1.98 1.98 3 3 C1.16901408 10.46478873 1.16901408 10.46478873 -2 13 C-4.33885925 15.15175051 -5.69699525 17.09329709 -7 20 C-7.66 20 -8.32 20 -9 20 C-9 19.34 -9 18.68 -9 18 C-9.99 18.33 -10.98 18.66 -12 19 C-12 17.68 -12 16.36 -12 15 C-10.390625 13.61328125 -10.390625 13.61328125 -8.25 12.3125 C-3.51179554 9.04448309 -1.80819309 5.35320322 0 0 Z " fill="#13214E" transform="translate(266,67)"/>
<path d="M0 0 C0.33 0.99 0.66 1.98 1 3 C2.65 3 4.3 3 6 3 C6.33 5.31 6.66 7.62 7 10 C9.05934259 10.39196857 11.1226937 10.7629141 13.1875 11.125 C14.33605469 11.33382812 15.48460937 11.54265625 16.66796875 11.7578125 C20.14123227 12.01026542 21.93376527 11.5591024 25 10 C25.33 10.99 25.66 11.98 26 13 C20.5029273 14.83235757 14.03352755 15.1772627 8.57421875 13.05859375 C4.64632529 10.69889881 1.35284118 7.98960026 -1 4 C-0.75 1.6875 -0.75 1.6875 0 0 Z " fill="#121F41" transform="translate(289,61)"/>
<path d="M0 0 C0.99 0.66 1.98 1.32 3 2 C2.41992188 2.02578125 1.83984375 2.0515625 1.2421875 2.078125 C-5.77072621 2.58731345 -9.64060777 4.58443177 -14.625 9.6875 C-16.90704599 11.90949215 -17.90679843 12.65631094 -21 13 C-19.45842665 7.17627845 -15.05049845 3.79405552 -10.02734375 0.83984375 C-6.58084415 -0.58789693 -3.71214885 -0.23569199 0 0 Z " fill="#151E40" transform="translate(309,35)"/>
<path d="M0 0 C2.20541388 2.20541388 2.9973448 3.94667501 4.1875 6.8125 C4.55230469 7.66457031 4.91710937 8.51664063 5.29296875 9.39453125 C6.09097298 12.33524297 5.81811708 14.0975082 5 17 C4.01 15.68 3.02 14.36 2 13 C1.01 13.33 0.02 13.66 -1 14 C-1.33 14.99 -1.66 15.98 -2 17 C-1.85899143 14.72886197 -1.71203245 12.45809275 -1.5625 10.1875 C-1.48128906 8.92292969 -1.40007812 7.65835938 -1.31640625 6.35546875 C-1 3 -1 3 0 0 Z " fill="#132C6C" transform="translate(87,54)"/>
<path d="M0 0 C0.33 0 0.66 0 1 0 C1.36504603 1.58086048 1.71660506 3.16483907 2.0625 4.75 C2.25972656 5.63171875 2.45695312 6.5134375 2.66015625 7.421875 C3.0028288 10.02145988 2.80635399 11.53849835 2 14 C1.814375 14.7425 1.62875 15.485 1.4375 16.25 C1.293125 16.8275 1.14875 17.405 1 18 C1.66 18 2.32 18 3 18 C3 19.32 3 20.64 3 22 C2.34 22 1.68 22 1 22 C-0.65 17.71 -2.3 13.42 -4 9 C-3.34 9 -2.68 9 -2 9 C-2.33 7.68 -2.66 6.36 -3 5 C-2.34 5 -1.68 5 -1 5 C-0.67 3.35 -0.34 1.7 0 0 Z " fill="#123077" transform="translate(93,27)"/>
<path d="M0 0 C0.33 0 0.66 0 1 0 C1.66 5.94 2.32 11.88 3 18 C2.34 18.33 1.68 18.66 1 19 C0.34 16.36 -0.32 13.72 -1 11 C-2.32 10.67 -3.64 10.34 -5 10 C-3.35 6.7 -1.7 3.4 0 0 Z " fill="#28366C" transform="translate(117,54)"/>
<path d="M0 0 C1.32 0 2.64 0 4 0 C4 0.66 4 1.32 4 2 C4.66 2.33 5.32 2.66 6 3 C5.67 3.66 5.34 4.32 5 5 C4.34 5 3.68 5 3 5 C3.66 7.31 4.32 9.62 5 12 C3.02 12 1.04 12 -1 12 C-2.42857143 3.42857143 -2.42857143 3.42857143 0 0 Z " fill="#152D70" transform="translate(107,76)"/>
<path d="M0 0 C6.47271382 -0.18852565 11.86015656 -0.24628418 18 2 C19.67225729 1.69595322 21.34080104 1.36871088 23 1 C23.66 1.66 24.32 2.32 25 3 C24.38125 3.28875 23.7625 3.5775 23.125 3.875 C20.86674235 4.93720042 20.86674235 4.93720042 19 7 C18.38253906 6.65066406 17.76507813 6.30132812 17.12890625 5.94140625 C11.25179202 2.78368734 6.6655507 1.32252665 0 1 C0 0.67 0 0.34 0 0 Z " fill="#0E1835" transform="translate(351,39)"/>
<path d="M0 0 C1.65 0 3.3 0 5 0 C4.08486681 2.28783297 3.34515354 3.73449728 1.375 5.25 C-2.26806872 6.40044275 -5.17141454 6.30385599 -9 6 C-11 4.5 -11 4.5 -12 3 C-8.33333333 3 -4.66666667 3 -1 3 C-0.67 2.01 -0.34 1.02 0 0 Z " fill="#142145" transform="translate(249,69)"/>
<path d="M0 0 C1.9453125 0.2421875 1.9453125 0.2421875 4.125 0.875 C4.84945312 1.07867187 5.57390625 1.28234375 6.3203125 1.4921875 C6.87460938 1.65976563 7.42890625 1.82734375 8 2 C6.68 2.33 5.36 2.66 4 3 C3.67 4.32 3.34 5.64 3 7 C1.68 7.33 0.36 7.66 -1 8 C-0.67 8.66 -0.34 9.32 0 10 C-1.32 9.34 -2.64 8.68 -4 8 C-2.25 2.25 -2.25 2.25 0 0 Z " fill="#E8EEF2" transform="translate(187,73)"/>
<path d="M0 0 C-1.41328129 0.81837442 -2.83078346 1.62946219 -4.25 2.4375 C-5.43335938 3.11619141 -5.43335938 3.11619141 -6.640625 3.80859375 C-8.78833468 4.89311602 -10.65205061 5.53148716 -13 6 C-12.67 4.02 -12.34 2.04 -12 0 C-3.96428571 -2.41071429 -3.96428571 -2.41071429 0 0 Z " fill="#121C3D" transform="translate(349,41)"/>
<path d="M0 0 C0.33 0 0.66 0 1 0 C1.33 1.65 1.66 3.3 2 5 C2.66 4.67 3.32 4.34 4 4 C3.690625 4.7425 3.38125 5.485 3.0625 6.25 C2.1905075 8.50692176 1.52332993 10.6450153 1 13 C0.01 12.67 -0.98 12.34 -2 12 C-3.60725635 8.78548731 -3.05748185 5.56387464 -3 2 C-2.01 2 -1.02 2 0 2 C0 1.34 0 0.68 0 0 Z " fill="#0C1948" transform="translate(235,57)"/>
<path d="M0 0 C0.33 0 0.66 0 1 0 C1.20674944 5.78898419 0.59162079 10.42932723 -1 16 C-1.99 15.67 -2.98 15.34 -4 15 C-3.71848084 12.87363187 -3.42446737 10.74891472 -3.125 8.625 C-2.96257812 7.44164063 -2.80015625 6.25828125 -2.6328125 5.0390625 C-2 2 -2 2 0 0 Z " fill="#0E2D7C" transform="translate(89,66)"/>
<path d="M0 0 C0.8971875 0.309375 0.8971875 0.309375 1.8125 0.625 C1.33039063 1.15609375 0.84828125 1.6871875 0.3515625 2.234375 C-0.28007812 2.94078125 -0.91171875 3.6471875 -1.5625 4.375 C-2.18898438 5.07109375 -2.81546875 5.7671875 -3.4609375 6.484375 C-5.06255183 8.47008688 -6.15270068 10.30454093 -7.1875 12.625 C-8.1775 12.295 -9.1675 11.965 -10.1875 11.625 C-9.52083333 10.29166667 -8.85416667 8.95833333 -8.1875 7.625 C-7.713125 6.59375 -7.23875 5.5625 -6.75 4.5 C-5.03594479 1.34613842 -3.83990065 -0.65826868 0 0 Z " fill="#182344" transform="translate(286.1875,31.375)"/>
<path d="M0 0 C1.98 0.495 1.98 0.495 4 1 C3.814375 1.86625 3.62875 2.7325 3.4375 3.625 C2.99246974 7.05809057 3.38597554 9.62286547 4 13 C3.67 13.66 3.34 14.32 3 15 C2.34 15 1.68 15 1 15 C0.67 15.66 0.34 16.32 0 17 C-0.33 14.03 -0.66 11.06 -1 8 C-0.34 8 0.32 8 1 8 C0.67 5.36 0.34 2.72 0 0 Z " fill="#18306A" transform="translate(124,25)"/>
<path d="M0 0 C0.33 0 0.66 0 1 0 C0.63418217 7.19441724 0.63418217 7.19441724 -2.3125 10.9375 C-4.71673473 12.78261037 -6.0389327 13.67099252 -9 14 C-9 12.35 -9 10.7 -9 9 C-8.4225 8.87625 -7.845 8.7525 -7.25 8.625 C-3.93684746 7.71802996 -3.93684746 7.71802996 -1 6 C-0.18415432 2.94091587 -0.18415432 2.94091587 0 0 Z " fill="#EAF4F8" transform="translate(208,70)"/>
<path d="M0 0 C0 0.66 0 1.32 0 2 C-1.258125 2.391875 -2.51625 2.78375 -3.8125 3.1875 C-6.84447282 4.32114769 -7.84517044 4.79872158 -9.875 7.4375 C-10.24625 8.283125 -10.6175 9.12875 -11 10 C-11.391875 10.763125 -11.78375 11.52625 -12.1875 12.3125 C-12.5896875 13.1478125 -12.5896875 13.1478125 -13 14 C-13.66 14 -14.32 14 -15 14 C-13.39293332 7.86392723 -10.48027657 3.83068033 -5.375 0.0625 C-3 -1 -3 -1 0 0 Z " fill="#DFE5F1" transform="translate(237,43)"/>
<path d="M0 0 C2.5102666 3.7653999 2 4.42530969 2 9 C2.66 9.33 3.32 9.66 4 10 C1.36 10 -1.28 10 -4 10 C-3.67 9.01 -3.34 8.02 -3 7 C-3.66 7 -4.32 7 -5 7 C-5 6.34 -5 5.68 -5 5 C-3.68 4.67 -2.36 4.34 -1 4 C-0.67 2.68 -0.34 1.36 0 0 Z " fill="#11286B" transform="translate(178,78)"/>
<path d="M0 0 C0.33 0.99 0.66 1.98 1 3 C1.66 3 2.32 3 3 3 C3.50423019 8.29441695 2.18923033 10.81413519 -1 15 C-2.20220203 11.46905698 -1.79532349 8.87101018 -1.0625 5.25 C-0.86785156 4.26515625 -0.67320313 3.2803125 -0.47265625 2.265625 C-0.31667969 1.51796875 -0.16070312 0.7703125 0 0 Z " fill="#E2EDF6" transform="translate(76,61)"/>
<path d="M0 0 C1.98 0.66 3.96 1.32 6 2 C4.48065294 5.03869411 2.01995228 5.64410306 -1 7 C-1.66 7 -2.32 7 -3 7 C-2.25 2.25 -2.25 2.25 0 0 Z " fill="#142043" transform="translate(291,24)"/>
<path d="M0 0 C1.65 0.33 3.3 0.66 5 1 C5 1.66 5 2.32 5 3 C4.34 3 3.68 3 3 3 C2.731875 3.639375 2.46375 4.27875 2.1875 4.9375 C1 7 1 7 -2 8 C-2.33 7.34 -2.66 6.68 -3 6 C-2.06553465 3.96855359 -1.06775224 1.96466413 0 0 Z " fill="#18306B" transform="translate(111,67)"/>
<path d="M0 0 C0.99 0.66 1.98 1.32 3 2 C2.06027344 2.09087891 2.06027344 2.09087891 1.1015625 2.18359375 C0.28429687 2.26738281 -0.53296875 2.35117187 -1.375 2.4375 C-2.18710937 2.51871094 -2.99921875 2.59992187 -3.8359375 2.68359375 C-6.04272805 2.89090114 -6.04272805 2.89090114 -8 4 C-9.99960012 4.039992 -12.00047242 4.04346799 -14 4 C-9.33439255 0.42303429 -5.96973081 -0.6974537 0 0 Z " fill="#2A324C" transform="translate(309,35)"/>
<path d="M0 0 C0.66 0 1.32 0 2 0 C5.07692308 6.4 5.07692308 6.4 4.6875 9.4375 C4.460625 9.953125 4.23375 10.46875 4 11 C1.11670417 7.744666 -0.63331529 5.40021656 -1 1 C-0.67 0.67 -0.34 0.34 0 0 Z " fill="#13213D" transform="translate(372,42)"/>
<path d="M0 0 C-1.35091524 4.42117715 -3.1650145 6.443343 -7 9 C-9.3125 9.75 -9.3125 9.75 -11 10 C-10.34 8.68 -9.68 7.36 -9 6 C-8.01 6 -7.02 6 -6 6 C-5.67 5.01 -5.34 4.02 -5 3 C-2.44444444 0 -2.44444444 0 0 0 Z " fill="#D9E6F2" transform="translate(175,74)"/>
<path d="M0 0 C2 0 2 0 3.625 1.1875 C5.42149467 3.55560662 5.23521845 5.09897251 5 8 C4.67 6.68 4.34 5.36 4 4 C3.34 4 2.68 4 2 4 C2.33 5.32 2.66 6.64 3 8 C2.01 8.33 1.02 8.66 0 9 C-1.10844919 5.67465243 -0.84454356 3.37817425 0 0 Z " fill="#0C1739" transform="translate(362,57)"/>
<path d="M0 0 C1.9375 1.4375 1.9375 1.4375 3 3 C3 3.66 3 4.32 3 5 C2.34 5 1.68 5 1 5 C0.67 4.34 0.34 3.68 0 3 C-2.58605332 2.5316735 -2.58605332 2.5316735 -5.5625 2.375 C-7.08037109 2.26285156 -7.08037109 2.26285156 -8.62890625 2.1484375 C-9.80259766 2.07496094 -9.80259766 2.07496094 -11 2 C-11 1.34 -11 0.68 -11 0 C-7.16455058 -1.38076179 -3.92847503 -0.85712183 0 0 Z " fill="#182A51" transform="translate(210,25)"/>
<path d="M0 0 C2.64 0 5.28 0 8 0 C8 1.32 8 2.64 8 4 C7.01 4.33 6.02 4.66 5 5 C3.35 3.35 1.7 1.7 0 0 Z " fill="#152C7F" transform="translate(72,85)"/>
<path d="M0 0 C1.25541557 3.76624671 0.37061958 5.37188934 -1 9 C-1.66 9 -2.32 9 -3 9 C-5.125 4.375 -5.125 4.375 -4 1 C-1.9375 0.3125 -1.9375 0.3125 0 0 Z " fill="#E1EBF7" transform="translate(104,79)"/>
<path d="M0 0 C0.99 0 1.98 0 3 0 C4.35439668 2.70879335 4.06501451 5.00933268 4 8 C4.66 8 5.32 8 6 8 C6 9.32 6 10.64 6 12 C5.34 12 4.68 12 4 12 C3.3291288 10.3767313 2.66342971 8.75132422 2 7.125 C1.62875 6.22007813 1.2575 5.31515625 0.875 4.3828125 C0 2 0 2 0 0 Z " fill="#1A2E66" transform="translate(90,37)"/>
<path d="M0 0 C0.99 0.99 1.98 1.98 3 3 C2.3125 5.375 2.3125 5.375 1 8 C-0.65 8.66 -2.3 9.32 -4 10 C-2.68 6.7 -1.36 3.4 0 0 Z " fill="#1F2C4F" transform="translate(266,67)"/>
<path d="M0 0 C0.99 0.33 1.98 0.66 3 1 C2.125 7.75 2.125 7.75 1 10 C0.34 10 -0.32 10 -1 10 C-1.125 3.375 -1.125 3.375 0 0 Z " fill="#0B2E7F" transform="translate(73,47)"/>
<path d="M0 0 C0.33 0 0.66 0 1 0 C1.103125 1.258125 1.20625 2.51625 1.3125 3.8125 C1.64858808 6.60499657 1.80025876 7.74433121 3.5625 10 C4.036875 10.33 4.51125 10.66 5 11 C3.02 11.66 1.04 12.32 -1 13 C-0.67 8.71 -0.34 4.42 0 0 Z " fill="#0D1233" transform="translate(378,59)"/>
<path d="M0 0 C0.66 0.33 1.32 0.66 2 1 C2.73075648 3.3140622 3.40138258 5.64828869 4 8 C3.01 8.33 2.02 8.66 1 9 C1 8.34 1 7.68 1 7 C0.01 7.33 -0.98 7.66 -2 8 C-1.125 2.25 -1.125 2.25 0 0 Z " fill="#19264D" transform="translate(275,60)"/>
<path d="M0 0 C0.66 1.65 1.32 3.3 2 5 C-1 7 -1 7 -4 7 C-4 5.35 -4 3.7 -4 2 C-4.66 1.67 -5.32 1.34 -6 1 C-3.92446352 0.4465236 -2.15634036 0 0 0 Z " fill="#0D1C47" transform="translate(326,24)"/>
<path d="M0 0 C5.61 0.66 11.22 1.32 17 2 C17 2.33 17 2.66 17 3 C15.39679026 3.19551338 13.79237014 3.38111983 12.1875 3.5625 C11.29417969 3.66691406 10.40085937 3.77132812 9.48046875 3.87890625 C7 4 7 4 4 3 C2.33378384 2.96125079 0.66605828 2.9549714 -1 3 C-0.67 2.01 -0.34 1.02 0 0 Z " fill="#081138" transform="translate(293,83)"/>
<path d="M0 0 C2 3 4 6 6 9 C4.02 9.33 2.04 9.66 0 10 C0 6.7 0 3.4 0 0 Z " fill="#192547" transform="translate(333,70)"/>
<path d="M0 0 C0.33 0 0.66 0 1 0 C1 3.63 1 7.26 1 11 C-4 9 -4 9 -5 7 C-4.0409375 6.6596875 -4.0409375 6.6596875 -3.0625 6.3125 C-0.72806339 5.14749104 -0.72806339 5.14749104 -0.25 2.375 C-0.1675 1.59125 -0.085 0.8075 0 0 Z " fill="#D0DBED" transform="translate(320,30)"/>
<path d="M0 0 C0.33 0 0.66 0 1 0 C1.33 3.3 1.66 6.6 2 10 C1.67 9.34 1.34 8.68 1 8 C-0.32 8 -1.64 8 -3 8 C-1.125 1.125 -1.125 1.125 0 0 Z " fill="#CDDCF0" transform="translate(121,24)"/>
<path d="M0 0 C2.31 1.98 4.62 3.96 7 6 C3 7 3 7 1 6 C-0.1875 4.0625 -0.1875 4.0625 -1 2 C-0.67 1.34 -0.34 0.68 0 0 Z " fill="#162043" transform="translate(281,73)"/>
<path d="M0 0 C2.3125 0.125 2.3125 0.125 5 1 C6.8125 4.0625 6.8125 4.0625 8 7 C7.01 7 6.02 7 5 7 C0 1.53488372 0 1.53488372 0 0 Z " fill="#E6EBF4" transform="translate(334,72)"/>
<path d="M0 0 C5.01113235 1.4317521 6.94469549 3.98445693 10 8 C9.67 8.66 9.34 9.32 9 10 C7.49147143 8.90751403 5.99337169 7.80061501 4.5 6.6875 C3.24703125 5.76517578 3.24703125 5.76517578 1.96875 4.82421875 C1.3190625 4.22222656 0.669375 3.62023437 0 3 C0 2.01 0 1.02 0 0 Z " fill="#0F1F4A" transform="translate(220,72)"/>
<path d="M0 0 C2.09749995 2.35968744 2.96905704 3.54616994 3.1875 6.75 C3.125625 7.4925 3.06375 8.235 3 9 C1.68 8.67 0.36 8.34 -1 8 C-0.34 7.67 0.32 7.34 1 7 C0.67 6.34 0.34 5.68 0 5 C-0.99 4.67 -1.98 4.34 -3 4 C-3 3.34 -3 2.68 -3 2 C-2.01 2 -1.02 2 0 2 C0 1.34 0 0.68 0 0 Z " fill="#0E276E" transform="translate(115,63)"/>
<path d="M0 0 C3.35595828 0.59927826 5.37801226 1.84622436 8 4 C7.34 4 6.68 4 6 4 C6 4.66 6 5.32 6 6 C3.5625 5.25 3.5625 5.25 1 4 C0.1875 1.875 0.1875 1.875 0 0 Z " fill="#1C2A58" transform="translate(239,50)"/>
<path d="M0 0 C0.66 0.33 1.32 0.66 2 1 C2 1.66 2 2.32 2 3 C2.99 3.33 3.98 3.66 5 4 C4.34 5.32 3.68 6.64 3 8 C0.9375 6.25 0.9375 6.25 -1 4 C-0.75 1.75 -0.75 1.75 0 0 Z " fill="#162148" transform="translate(258,40)"/>
<path d="M0 0 C0.66 0.33 1.32 0.66 2 1 C1.67 3.97 1.34 6.94 1 10 C-0.32 8.68 -1.64 7.36 -3 6 C-2.01 4.02 -1.02 2.04 0 0 Z " fill="#1B2C5B" transform="translate(237,64)"/>
<path d="M0 0 C0.33 0 0.66 0 1 0 C0.67 3.96 0.34 7.92 0 12 C-1.99795425 8.00409149 -2.3757916 6.32160334 -2 2 C-1.34 1.34 -0.68 0.68 0 0 Z " fill="#D8E6F3" transform="translate(85,58)"/>
<path d="M0 0 C1.15941038 3.47823115 0.70820884 5.45895578 0 9 C-0.99 8.67 -1.98 8.34 -3 8 C-3.99 8 -4.98 8 -6 8 C-4.73046875 6.50260417 -3.4609375 5.00520833 -2.19140625 3.5078125 C-0.9121848 1.99405921 -0.9121848 1.99405921 0 0 Z " fill="#0B204D" transform="translate(175,74)"/>
<path d="M0 0 C0.66 0.33 1.32 0.66 2 1 C2 2.65 2 4.3 2 6 C0.02 6 -1.96 6 -4 6 C-2.84826645 3.53199953 -1.95216435 1.95216435 0 0 Z " fill="#0E1437" transform="translate(374,75)"/>
<path d="M0 0 C0.66 0 1.32 0 2 0 C2.66 2.31 3.32 4.62 4 7 C2.35 7.33 0.7 7.66 -1 8 C-0.67 5.36 -0.34 2.72 0 0 Z " fill="#CBDAF0" transform="translate(83,24)"/>
<path d="M0 0 C0 0.66 0 1.32 0 2 C0.99 2.33 1.98 2.66 3 3 C-1.29 2.67 -5.58 2.34 -10 2 C-10 1.67 -10 1.34 -10 1 C-6.56484998 0.37542727 -3.50935186 0 0 0 Z " fill="#0B133A" transform="translate(362,84)"/>
<path d="M0 0 C0.66 0.33 1.32 0.66 2 1 C2 1.66 2 2.32 2 3 C-1.01490557 4.00496852 -3.04181692 4.10335303 -6.1875 4.0625 C-7.53908203 4.04896484 -7.53908203 4.04896484 -8.91796875 4.03515625 C-9.60503906 4.02355469 -10.29210937 4.01195313 -11 4 C-11 3.67 -11 3.34 -11 3 C-10.37351562 2.86722656 -9.74703125 2.73445313 -9.1015625 2.59765625 C-8.28429687 2.42105469 -7.46703125 2.24445313 -6.625 2.0625 C-5.81289063 1.88847656 -5.00078125 1.71445313 -4.1640625 1.53515625 C-1.970537 1.07669307 -1.970537 1.07669307 0 0 Z " fill="#0C1534" transform="translate(313,71)"/>
<path d="M0 0 C0.66 0.33 1.32 0.66 2 1 C-0.64 3.97 -3.28 6.94 -6 10 C-6.66 9.67 -7.32 9.34 -8 9 C-6.85459775 7.68712379 -5.70866567 6.37470979 -4.5625 5.0625 C-3.92441406 4.33160156 -3.28632813 3.60070313 -2.62890625 2.84765625 C-1.77458541 1.87860647 -0.91348825 0.91348825 0 0 Z " fill="#E3E8F4" transform="translate(288,31)"/>
<path d="M0 0 C1.42944945 2.35438733 2.08661261 3.48032433 1.625 6.25 C1.41875 6.8275 1.2125 7.405 1 8 C0.01 8 -0.98 8 -2 8 C-1.47731534 5.23723823 -0.89130413 2.6739124 0 0 Z " fill="#1F3673" transform="translate(71,76)"/>
<path d="M0 0 C0.33 0 0.66 0 1 0 C1 2.97 1 5.94 1 9 C0.01 9 -0.98 9 -2 9 C-2.33 7.68 -2.66 6.36 -3 5 C-2.34 5 -1.68 5 -1 5 C-0.67 3.35 -0.34 1.7 0 0 Z " fill="#0A1945" transform="translate(255,59)"/>
<path d="M0 0 C1 2 1 2 0.0625 5.125 C-0.288125 6.07375 -0.63875 7.0225 -1 8 C-2.5 6.625 -2.5 6.625 -4 5 C-4 4.34 -4 3.68 -4 3 C-3.34 3 -2.68 3 -2 3 C-2 2.34 -2 1.68 -2 1 C-1.34 0.67 -0.68 0.34 0 0 Z " fill="#FCFEF5" transform="translate(98,61)"/>
<path d="M0 0 C2.5654594 2.5654594 2.54046087 4.47686668 3 8 C2.67 7.34 2.34 6.68 2 6 C1.34 6 0.68 6 0 6 C-0.33 7.32 -0.66 8.64 -1 10 C-1.125 3.375 -1.125 3.375 0 0 Z " fill="#253366" transform="translate(87,54)"/>
<path d="M0 0 C3.63 0 7.26 0 11 0 C5.95238095 2.52380952 5.95238095 2.52380952 3 3 C2.01 2.67 1.02 2.34 0 2 C0 1.34 0 0.68 0 0 Z " fill="#141E42" transform="translate(304,37)"/>
<path d="M0 0 C0.598125 0.309375 1.19625 0.61875 1.8125 0.9375 C4.08956772 2.10209704 4.08956772 2.10209704 7 3 C7 3.66 7 4.32 7 5 C5.35 5 3.7 5 2 5 C1.34 3.35 0.68 1.7 0 0 Z " fill="#1D2F5F" transform="translate(145,80)"/>
<path d="M0 0 C0.33 0 0.66 0 1 0 C1.33 2.64 1.66 5.28 2 8 C0.02 8 -1.96 8 -4 8 C-3.34 6.68 -2.68 5.36 -2 4 C-1.34 4 -0.68 4 0 4 C0 2.68 0 1.36 0 0 Z " fill="#D6DFEE" transform="translate(130,76)"/>
<path d="M0 0 C2.35448165 2.55068845 2.98327924 3.71017358 3.1875 7.25 C3.125625 8.1575 3.06375 9.065 3 10 C2.01 9.67 1.02 9.34 0 9 C-1.15941038 5.52176885 -0.70820884 3.54104422 0 0 Z " fill="#17204D" transform="translate(233,60)"/>
<path d="M0 0 C3.63 0 7.26 0 11 0 C11 0.33 11 0.66 11 1 C8.69 1 6.38 1 4 1 C4 1.66 4 2.32 4 3 C2.35 2.67 0.7 2.34 -1 2 C-0.67 1.34 -0.34 0.68 0 0 Z " fill="#2B365F" transform="translate(237,84)"/>
<path d="M0 0 C0.33 0 0.66 0 1 0 C0.38461538 7.50769231 0.38461538 7.50769231 -1.5625 10 C-2.036875 10.33 -2.51125 10.66 -3 11 C-3 9.35 -3 7.7 -3 6 C-2.34 6 -1.68 6 -1 6 C-0.67 4.02 -0.34 2.04 0 0 Z " fill="#D8E3EE" transform="translate(208,70)"/>
<path d="M0 0 C0.99 0.33 1.98 0.66 3 1 C3 1.66 3 2.32 3 3 C1.02 3.66 -0.96 4.32 -3 5 C-2.625 3.0625 -2.625 3.0625 -2 1 C-1.34 0.67 -0.68 0.34 0 0 Z " fill="#E6EEF6" transform="translate(234,42)"/>
<path d="M0 0 C1.32 0.66 2.64 1.32 4 2 C3.34 3.32 2.68 4.64 2 6 C1.01 6 0.02 6 -1 6 C-0.67 4.02 -0.34 2.04 0 0 Z " fill="#192044" transform="translate(337,41)"/>
<path d="M0 0 C1.98 0 3.96 0 6 0 C6.33 0.66 6.66 1.32 7 2 C4.69 2.33 2.38 2.66 0 3 C0 2.01 0 1.02 0 0 Z " fill="#192148" transform="translate(309,84)"/>
<path d="M0 0 C3.3 0 6.6 0 10 0 C10 0.33 10 0.66 10 1 C8.02 1 6.04 1 4 1 C3.67 1.99 3.34 2.98 3 4 C1.97895449 3.02149805 0.9793879 2.02019573 0 1 C0 0.67 0 0.34 0 0 Z " fill="#1F3366" transform="translate(122,84)"/>
<path d="M0 0 C0.99 0 1.98 0 3 0 C3.66 0.66 4.32 1.32 5 2 C3.625 3.5 3.625 3.5 2 5 C1.34 5 0.68 5 0 5 C-0.5625 3.0625 -0.5625 3.0625 -1 1 C-0.67 0.67 -0.34 0.34 0 0 Z " fill="#192A58" transform="translate(227,80)"/>
<path d="M0 0 C1.33470263 2.66940525 0.57333449 4.13332753 0 7 C0.33 7.66 0.66 8.32 1 9 C-0.32 8.34 -1.64 7.68 -3 7 C-1.125 1.125 -1.125 1.125 0 0 Z " fill="#DAE7F3" transform="translate(186,74)"/>
<path d="M0 0 C0.33 0.66 0.66 1.32 1 2 C1.66 2 2.32 2 3 2 C2.67 3.32 2.34 4.64 2 6 C1.01 5.67 0.02 5.34 -1 5 C-0.67 3.35 -0.34 1.7 0 0 Z " fill="#0E1B44" transform="translate(268,64)"/>
</svg>
