<?xml version="1.0" encoding="UTF-8"?>
<svg version="1.1" xmlns="http://www.w3.org/2000/svg" width="1024" height="297">
<path d="M0 0 C337.92 0 675.84 0 1024 0 C1024 98.01 1024 196.02 1024 297 C686.08 297 348.16 297 0 297 C0 198.99 0 100.98 0 0 Z " fill="#FEFEFE" transform="translate(0,0)"/>
<path d="M0 0 C2.51583509 2.19417581 4.86621711 4.46898684 7.19140625 6.86328125 C8.23554687 7.89388672 8.23554687 7.89388672 9.30078125 8.9453125 C17.73095186 17.75124653 23.9445612 29.13695246 27.19140625 40.86328125 C27.371875 41.49250488 27.55234375 42.12172852 27.73828125 42.77001953 C36.05749354 72.94824317 32.76216563 106.44755691 18.5 134.1484375 C11.74208059 145.46591699 2.75462391 154.55760846 -8.80859375 160.86328125 C-9.6078125 161.33378906 -10.40703125 161.80429688 -11.23046875 162.2890625 C-25.60432905 170.25105374 -44.76676462 171.31351466 -60.53125 167.01953125 C-79.85226163 160.20305992 -93.35020762 148.35499502 -102.99609375 130.11328125 C-116.20426112 102.15360087 -118.32856891 68.02008282 -108.453125 38.65234375 C-100.99906853 18.18673851 -88.59807621 2.16111004 -68.97680664 -7.47119141 C-46.97285495 -17.66330852 -19.3678089 -14.73461957 0 0 Z " fill="#030303" transform="translate(563.80859375,71.13671875)"/>
<path d="M0 0 C100.19868996 0 100.19868996 0 116.15625 14.9765625 C127.5566261 27.48799221 129.83982065 41.84172478 129.31640625 58.1328125 C128.64667085 70.73536038 123.51554417 84.35724623 114 93 C107.54522357 98.35052014 100.99307639 101.55345 93 104 C94.64482868 109.56173676 97.12646138 114.58307489 99.69140625 119.76171875 C100.15554428 120.70698929 100.61968231 121.65225983 101.09788513 122.62617493 C102.5825213 125.64838734 104.07222327 128.66806556 105.5625 131.6875 C116.87587805 154.65833923 116.87587805 154.65833923 122.21484375 165.83203125 C122.79257286 167.03130501 122.79257286 167.03130501 123.38197327 168.25480652 C126 173.7659118 126 173.7659118 126 176 C116.43 176 106.86 176 97 176 C91.34713167 165.65418438 86.14299302 155.16549568 81.09765625 144.51171875 C78.82148208 139.70845947 76.51127516 134.9229433 74.18359375 130.14453125 C73.53463823 128.81007306 72.88571233 127.47560046 72.23681641 126.14111328 C71.27819758 124.17000293 70.31838548 122.1995226 69.35467529 120.230896 C68.45823741 118.39911589 67.56689277 116.56484589 66.67578125 114.73046875 C66.15927002 113.67239014 65.64275879 112.61431152 65.1105957 111.52416992 C64 109 64 109 64 107 C51.13 107 38.26 107 25 107 C25 129.77 25 152.54 25 176 C16.75 176 8.5 176 0 176 C0 117.92 0 59.84 0 0 Z " fill="#030303" transform="translate(290,61)"/>
<path d="M0 0 C0.80373047 -0.00386719 1.60746094 -0.00773437 2.43554688 -0.01171875 C18.11971406 0.01351724 35.2518504 3.60529173 47.22265625 14.4140625 C57.74693683 25.46883527 60.16771722 37.41948215 59.94140625 52.37109375 C58.9943348 66.37318093 53.72194177 76.5098246 43.6875 86.125 C36.94577852 91.94556925 29.78765896 96.75752627 22.1875 101.375 C20.06662169 102.68574337 17.94683966 103.99826214 15.828125 105.3125 C14.78978516 105.95574219 13.75144531 106.59898437 12.68164062 107.26171875 C-9.83834978 120.97329499 -9.83834978 120.97329499 -26.3125 141.125 C-26.910625 142.1975 -27.50875 143.27 -28.125 144.375 C-29.55149684 147.415658 -29.55149684 147.415658 -30.3125 152.125 C0.0475 152.125 30.4075 152.125 61.6875 152.125 C61.6875 160.705 61.6875 169.285 61.6875 178.125 C20.4375 178.125 -20.8125 178.125 -63.3125 178.125 C-63.3125 150.84543133 -54.22939209 130.66518343 -35.3125 111.125 C-34.56097656 110.34769531 -33.80945313 109.57039063 -33.03515625 108.76953125 C-21.5389771 97.63658051 -7.34488939 89.49732498 6.3125 81.3125 C22.03883523 72.04066916 22.03883523 72.04066916 31.6875 57.125 C32.52545602 50.83703079 33.02214376 43.8924172 30.25 38 C24.58943849 31.64912612 16.84364244 28.63867639 8.42578125 27.9362793 C6.05079638 27.85769524 3.68858488 27.84699819 1.3125 27.875 C0.05469727 27.88623901 0.05469727 27.88623901 -1.22851562 27.89770508 C-14.63814232 28.1308367 -25.2326187 31.95093901 -36.2421875 39.6953125 C-38.53949782 41.28175699 -40.90732635 42.70871308 -43.3125 44.125 C-45.04195489 42.08357689 -46.77107048 40.04186798 -48.5 38 C-48.98275391 37.43023437 -49.46550781 36.86046875 -49.96289062 36.2734375 C-50.93313481 35.12737726 -51.90172341 33.97991337 -52.86865234 32.83105469 C-53.83484826 31.68939471 -54.80924172 30.5546244 -55.79150391 29.42675781 C-59.3125 25.34066358 -59.3125 25.34066358 -59.3125 23.125 C-43.04600279 8.52453137 -21.85405612 -0.1036556 0 0 Z " fill="#030303" transform="translate(862.3125,57.875)"/>
<path d="M0 0 C3.09711145 2.56965579 6.0835183 5.22754208 9 8 C8.10649818 13.30896936 4.365918 16.14784595 0.6875 19.8125 C0.01009766 20.51826172 -0.66730469 21.22402344 -1.36523438 21.95117188 C-2.02458984 22.61310547 -2.68394531 23.27503906 -3.36328125 23.95703125 C-3.96438721 24.56522705 -4.56549316 25.17342285 -5.18481445 25.80004883 C-7 27 -7 27 -9.0859375 26.796875 C-11.7219207 25.69944526 -13.53462189 24.05610113 -15.6875 22.1875 C-27.21313096 12.76816124 -40.3707017 10.94655459 -55 12 C-62.43566592 13.12817 -68.14778796 16.17258848 -73 22 C-76.05270435 28.07557771 -75.99097073 34.910503 -73.9375 41.3125 C-66.13339189 52.13755318 -53.1190426 55.45357161 -40.9375 59.3125 C-10.85848406 69.12172345 -10.85848406 69.12172345 1 79 C1.64066406 79.51820313 2.28132812 80.03640625 2.94140625 80.5703125 C9.40742856 86.35202575 14.57605579 95.46555909 15.14526367 104.23901367 C15.17003149 106.88863731 15.18565862 109.53775195 15.1875 112.1875 C15.19974609 113.09564453 15.21199219 114.00378906 15.22460938 114.93945312 C15.25532711 129.24367965 11.05600186 141.61113396 1 152 C-9.7670535 161.74437638 -24.78578896 166.03557023 -39 167 C-39.70995117 167.04914551 -40.41990234 167.09829102 -41.15136719 167.14892578 C-64.68727931 168.55623814 -84.80179301 161.10076748 -102.390625 145.61328125 C-104.82418957 143.17607362 -106.30460142 140.96323225 -108 138 C-105.27038702 135.12571575 -102.51327626 132.27940607 -99.75 129.4375 C-98.97269531 128.61830078 -98.19539062 127.79910156 -97.39453125 126.95507812 C-96.64042969 126.18486328 -95.88632812 125.41464844 -95.109375 124.62109375 C-94.41811523 123.9036499 -93.72685547 123.18620605 -93.01464844 122.44702148 C-91 121 -91 121 -88.87207031 121.14086914 C-86.62589383 122.17168487 -85.34915944 123.68521476 -83.6796875 125.46875 C-71.7440007 136.34965518 -56.76672787 140.81396566 -40.90625 140.28515625 C-32.19631407 139.64933093 -23.76748801 137.8216704 -17 132 C-12.73521374 126.5323253 -11.81626865 122.53934772 -11.6875 115.6875 C-11.65011719 114.39199219 -11.61273437 113.09648437 -11.57421875 111.76171875 C-12.16782385 106.51729937 -14.40152758 103.55145852 -18.125 99.9375 C-25.84305389 94.73620281 -34.45246666 91.56161913 -43.1875 88.5 C-44.83951416 87.91037476 -44.83951416 87.91037476 -46.52490234 87.30883789 C-52.36069742 85.2365089 -58.21421041 83.28266712 -64.125 81.4375 C-77.35603128 77.05210162 -89.55170872 70.6696413 -97.375 58.6875 C-103.30818347 46.73948375 -103.9260023 31.81357736 -100.4375 19.0625 C-95.66144527 5.66950738 -86.0918963 -3.58098383 -73.42651367 -9.69238281 C-49.48704851 -20.54757656 -20.79707408 -15.37038658 0 0 Z " fill="#030303" transform="translate(730,73)"/>
<path d="M0 0 C0.66773438 0.41378906 1.33546875 0.82757813 2.0234375 1.25390625 C2.71179688 1.67800781 3.40015625 2.10210937 4.109375 2.5390625 C17.17173985 11.5225663 25.22786074 26.01653915 28.3671875 41.3828125 C31.8312223 62.99112634 30.15210106 88.29164533 18.171875 107.171875 C13.88270649 112.81956501 9.00001328 117.43497563 3.0234375 121.25390625 C2.34539062 121.68832031 1.66734375 122.12273437 0.96875 122.5703125 C-7.80987235 127.05334562 -20.76736905 127.18272357 -30.18847656 124.66210938 C-43.52050643 119.78942371 -51.42326773 109.70506944 -57.421875 97.25390625 C-66.41657656 75.70971089 -67.23137245 48.52422839 -58.6640625 26.69140625 C-56.27439774 21.50303502 -53.37579227 16.83507844 -49.9765625 12.25390625 C-49.2546875 11.22265625 -48.5328125 10.19140625 -47.7890625 9.12890625 C-36.89836256 -3.52976446 -14.91663165 -7.51065488 0 0 Z " fill="#FDFDFD" transform="translate(539.9765625,87.74609375)"/>
<path d="M0 0 C9.054375 -0.061875 18.10875 -0.12375 27.4375 -0.1875 C30.27915771 -0.21481201 33.12081543 -0.24212402 36.04858398 -0.27026367 C38.32274959 -0.27903264 40.59691994 -0.28667561 42.87109375 -0.29296875 C44.03419067 -0.30831665 45.1972876 -0.32366455 46.39562988 -0.33947754 C56.17980655 -0.34260048 63.99685887 0.99847196 71.203125 7.9453125 C77.58614397 15.24415594 78.91364994 22.68261652 78.41015625 32.15234375 C77.50594077 40.63474607 74.87301297 45.98462966 68.390625 51.52734375 C60.56603177 56.34739546 53.5122464 56.40626654 44.53125 56.29296875 C43.25519897 56.28872391 41.97914795 56.28447906 40.66442871 56.28010559 C37.29738106 56.26621934 33.93096124 56.23933995 30.56408691 56.20599365 C27.11830115 56.17512036 23.6724482 56.16139843 20.2265625 56.14648438 C13.48402541 56.11605776 6.74257607 56.05732039 0 56 C0 37.52 0 19.04 0 0 Z " fill="#FEFEFE" transform="translate(315,86)"/>
<path d="M0 0 C5.1554384 3.47692357 9.69744726 7.84234178 11.6875 13.8125 C12.42194158 21.10042029 10.91954813 26.25775668 7 32.5 C2.58332047 36.91667953 -2.05290191 39.02831457 -8.3125 39.375 C-13.64619234 39.12101465 -17.40979126 37.44635547 -21.3125 33.8125 C-26.32901818 27.2860348 -28.16830272 22.04508111 -27.3125 13.8125 C-25.30180805 7.15998206 -21.34707671 3.19808996 -15.4296875 -0.30078125 C-10.49819696 -2.36618412 -4.92211042 -1.76453015 0 0 Z " fill="#050505" transform="translate(154.3125,130.1875)"/>
<path d="M0 0 C5.05347793 2.83880633 8.53583168 6.99911535 10.75 12.375 C11.69096505 19.30842672 11.38951442 25.03663112 7.17578125 30.7578125 C3.39855002 35.04212408 -0.54650968 37.90584384 -6.28515625 38.6328125 C-12.05679683 38.92980944 -16.58521703 37.8710465 -21.25 34.375 C-26.79936137 28.31614391 -27.66586076 22.77412001 -27.59375 14.6796875 C-27.09735836 9.90755881 -25.52466964 6.83728093 -22.25 3.375 C-15.46412781 -1.91798031 -8.03093882 -3.67259252 0 0 Z " fill="#040404" transform="translate(87.25,130.625)"/>
<path d="M0 0 C5.05702937 2.69633645 8.35036247 6.71272942 11.140625 11.62890625 C12.78374996 18.05203109 12.43383861 23.63209623 9.171875 29.45703125 C6.20164181 33.56700508 2.64630657 36.71034573 -2.171875 38.31640625 C-9.1104163 39.03595868 -14.79415244 39.03721927 -20.55078125 34.8125 C-24.77765355 30.91155521 -26.76766303 26.84166472 -27.41015625 21.23828125 C-27.60968083 15.39956201 -26.63129975 11.08940968 -23.171875 6.31640625 C-16.55841849 -0.45907258 -9.48752961 -2.98618288 0 0 Z " fill="#040404" transform="translate(154.171875,61.68359375)"/>
<path d="M0 0 C5.02576395 2.98106151 9.10039959 6.81017419 11.7421875 12.09375 C12.67385097 24.00682383 12.67385097 24.00682383 10.1796875 29.59375 C0.83819453 39.17476843 0.83819453 39.17476843 -7.0078125 39.40625 C-12.90111926 39.32904511 -16.41763415 37.85083802 -20.7265625 33.66796875 C-25.62530867 28.15687931 -26.78181062 23.06579039 -26.63671875 15.87890625 C-25.83772216 10.00586947 -22.48586076 5.97604985 -18.1328125 2.15625 C-12.8373685 -1.64265548 -6.1237498 -2.4579757 0 0 Z " fill="#030303" transform="translate(221.2578125,129.90625)"/>
<path d="M0 0 C4.58655865 3.3853171 8.44077308 7.61720415 10.625 12.9375 C11.60910478 19.66603035 10.68326073 25.42817511 6.625 30.9375 C1.7307469 36.04309585 -2.01651046 38.07861786 -9.1875 38.25 C-14.46334312 38.19279206 -17.39062412 37.63033618 -21.375 33.9375 C-26.15206155 29.05338945 -28.43038156 24.88790022 -28.75 18.0625 C-28.5986792 12.06307529 -26.8723523 8.39591808 -22.62109375 4.2109375 C-15.81882116 -1.78187885 -8.84379111 -2.78415646 0 0 Z " fill="#030403" transform="translate(155.375,199.0625)"/>
<path d="M0 0 C4.57498557 3.40464042 8.8610727 7.52071811 10.6875 13 C11.67927285 20.72166006 10.10298357 26.6032097 5.6875 33 C2.70487042 36.70745856 0.04654742 37.82417918 -4.6640625 38.43359375 C-9.91913832 38.61613849 -14.05518857 38.57351048 -18.875 36.375 C-24.70253136 30.69689252 -27.45159319 26.6769332 -27.75 18.3125 C-27.70723102 12.39205139 -27.04416577 8.91714409 -23 4.5546875 C-22.1646875 3.78511719 -22.1646875 3.78511719 -21.3125 3 C-20.44625 2.175 -19.58 1.35 -18.6875 0.5 C-12.66231725 -2.177859 -6.25813043 -1.88924692 0 0 Z " fill="#030303" transform="translate(87.3125,62)"/>
<path d="M0 0 C5.00341172 2.23862016 8.01597377 5.56155248 10.60546875 10.3515625 C12.4988737 16.03177734 12.52678782 22.09257919 10.04296875 27.6015625 C7.20133744 32.60486335 3.08174622 36.52613668 -2.39453125 38.3515625 C-8.44408856 39.05958476 -13.79216583 39.40679971 -18.89453125 35.7265625 C-23.19114163 32.16489863 -26.11410686 28.28154216 -26.92578125 22.6953125 C-26.91546875 21.426875 -26.90515625 20.1584375 -26.89453125 18.8515625 C-26.91 16.94890625 -26.91 16.94890625 -26.92578125 15.0078125 C-25.91653834 8.0618466 -21.69757799 4.38648937 -16.39453125 0.3515625 C-11.70787684 -1.9917647 -4.94638379 -1.3394775 0 0 Z " fill="#030303" transform="translate(86.39453125,198.6484375)"/>
<path d="M0 0 C5.67739123 2.61542742 9.22967794 6.4930121 11.6484375 12.2734375 C12.54914754 19.6047983 12.20338871 26.25588727 7.6484375 32.2734375 C2.99680609 37.13153819 -1.02775917 38.44050525 -7.6640625 38.5859375 C-13.11302135 38.52546071 -16.31054247 38.21343203 -20.3515625 34.2734375 C-25.9450616 27.53058927 -27.04035854 22.00236183 -26.3515625 13.2734375 C-24.35537401 7.60005969 -20.72126017 4.29465022 -16.2265625 0.4609375 C-11.02644365 -1.68693768 -5.37111984 -1.65951543 0 0 Z " fill="#030303" transform="translate(221.3515625,61.7265625)"/>
<path d="M0 0 C4.41294223 2.30830825 8.80099367 6.34454331 10.390625 11.1640625 C11.63499009 18.05206321 11.54478867 24.51518727 7.98046875 30.65234375 C5.01432597 34.72597491 1.44515477 36.69650735 -3.22265625 38.3046875 C-9.07169888 39.04660146 -14.70527182 39.0798684 -19.72265625 35.71484375 C-24.75114859 30.98753715 -27.33949695 25.00098531 -27.66015625 18.1796875 C-27.58840266 10.44055079 -23.94881242 6.03084367 -18.66015625 0.7421875 C-12.79825319 -1.70915378 -6.10164505 -1.90877473 0 0 Z " fill="#030303" transform="translate(222.22265625,198.6953125)"/>
<path d="M0 0 C1.32 0 2.64 0 4 0 C4.6708712 1.6232687 5.33657029 3.24867578 6 4.875 C6.556875 6.23238281 6.556875 6.23238281 7.125 7.6171875 C8 10 8 10 8 12 C8.66 12 9.32 12 10 12 C10.20496094 11.38511719 10.40992188 10.77023438 10.62109375 10.13671875 C11.74739583 6.7578125 12.87369792 3.37890625 14 0 C15.32 0 16.64 0 18 0 C18 6.6 18 13.2 18 20 C16.68 20 15.36 20 14 20 C13.67 17.36 13.34 14.72 13 12 C12.01 14.31 11.02 16.62 10 19 C9.34 19 8.68 19 8 19 C6.68 15.7 5.36 12.4 4 9 C3.67 12.63 3.34 16.26 3 20 C2.01 20 1.02 20 0 20 C0 13.4 0 6.8 0 0 Z " fill="#555555" transform="translate(960,60)"/>
<path d="M0 0 C4.29 0 8.58 0 13 0 C13 0.66 13 1.32 13 2 C11.35 2 9.7 2 8 2 C8 7.61 8 13.22 8 19 C7.01 19 6.02 19 5 19 C5 13.39 5 7.78 5 2 C3.35 2 1.7 2 0 2 C0 1.34 0 0.68 0 0 Z " fill="#111111" transform="translate(943,61)"/>
<path d="M0 0 C1.32 0 2.64 0 4 0 C4.33 2.31 4.66 4.62 5 7 C4.34 7 3.68 7 3 7 C3 11.29 3 15.58 3 20 C2.01 20 1.02 20 0 20 C0 13.4 0 6.8 0 0 Z " fill="#2B2B2B" transform="translate(960,60)"/>
<path d="M0 0 C0.99 0 1.98 0 3 0 C3 5.94 3 11.88 3 18 C2.34 18 1.68 18 1 18 C0.93941406 17.18015625 0.87882813 16.3603125 0.81640625 15.515625 C0.73261719 14.43796875 0.64882813 13.3603125 0.5625 12.25 C0.48128906 11.18265625 0.40007813 10.1153125 0.31640625 9.015625 C0.08815109 6.10025792 0.08815109 6.10025792 -0.59765625 3.734375 C-1 2 -1 2 0 0 Z " fill="#050505" transform="translate(974,61)"/>
<path d="M0 0 C2.12508244 3.18762365 2.5020163 5.26512223 3 9 C2.34 9 1.68 9 1 9 C-1.125 2.25 -1.125 2.25 0 0 Z " fill="#1E1E1E" transform="translate(965,65)"/>
</svg>
