<?xml version="1.0" encoding="UTF-8"?>
<svg version="1.1" xmlns="http://www.w3.org/2000/svg" width="455" height="111">
<path d="M0 0 C150.15 0 300.3 0 455 0 C455 36.63 455 73.26 455 111 C304.85 111 154.7 111 0 111 C0 74.37 0 37.74 0 0 Z " fill="#FDFDFD" transform="translate(0,0)"/>
<path d="M0 0 C2.46923828 1.18652344 2.46923828 1.18652344 5.0703125 2.859375 C6.040896 3.47514404 7.01147949 4.09091309 8.01147461 4.7253418 C9.03893799 5.393479 10.06640137 6.06161621 11.125 6.75 C13.27460404 8.12651377 15.42434556 9.50281287 17.57421875 10.87890625 C18.64849121 11.57129395 19.72276367 12.26368164 20.82958984 12.97705078 C23.78830665 14.86492445 26.76950856 16.7060319 29.76953125 18.52734375 C30.64528809 19.06327148 31.52104492 19.59919922 32.42333984 20.15136719 C34.06833965 21.15644961 35.71825436 22.15354259 37.37353516 23.14160156 C38.10491699 23.59374023 38.83629883 24.04587891 39.58984375 24.51171875 C40.22784912 24.89803467 40.86585449 25.28435059 41.52319336 25.68237305 C43.36770242 27.32806909 43.62627695 28.59704029 44 31 C36.03062296 36.16157553 28.03018778 41.25537987 19.92578125 46.203125 C17.36837431 47.7737621 14.83852799 49.37970096 12.3125 51 C9 53 9 53 7 53 C10.32928281 56.74544316 14.37002367 60.01959997 19 62 C22.06531279 61.51114911 24.19390564 60.40069422 26.75 58.6796875 C27.4409375 58.22722656 28.131875 57.77476563 28.84375 57.30859375 C30.28486217 56.35046301 31.72236422 55.3868807 33.15625 54.41796875 C33.8471875 53.96808594 34.538125 53.51820312 35.25 53.0546875 C35.87390625 52.63687012 36.4978125 52.21905273 37.140625 51.78857422 C39.50256261 50.78685961 40.63686717 51.10688222 43 52 C45.81606063 54.81606063 44.53137717 62.910755 44.625 66.6875 C44.69589844 67.96818359 44.76679687 69.24886719 44.83984375 70.56835938 C45.0222973 79.80146915 45.0222973 79.80146915 42.25097656 83.05053711 C39.90674391 84.6278013 37.56496048 85.81983867 35 87 C33.58298808 87.85081752 32.17622021 88.71897491 30.78125 89.60546875 C29.35512921 90.46773981 27.92801878 91.32837589 26.5 92.1875 C21.68397874 95.09253864 16.90813545 98.03201992 12.23046875 101.15625 C11.46734375 101.66389893 10.70421875 102.17154785 9.91796875 102.69458008 C8.46215009 103.66900336 7.01257276 104.65283556 5.5703125 105.6472168 C2.7999084 107.49765427 0.66587937 108.87236488 -2.62890625 109.50390625 C-5.79288207 108.83149623 -7.90891423 107.51294749 -10.625 105.75 C-11.1720459 105.4001001 -11.7190918 105.0502002 -12.28271484 104.68969727 C-13.50894415 103.90501143 -14.73225475 103.11575202 -15.953125 102.32275391 C-18.99975371 100.35392825 -22.0736026 98.4289116 -25.14453125 96.49829102 C-28.37679576 94.46444584 -31.60253455 92.42038393 -34.828125 90.37597656 C-36.75928974 89.15250034 -38.69183431 87.93124834 -40.625 86.7109375 C-41.615 86.08445312 -42.605 85.45796875 -43.625 84.8125 C-44.46289062 84.28269531 -45.30078125 83.75289063 -46.1640625 83.20703125 C-48 82 -48 82 -49 81 C-49.15077278 79.38691361 -49.23331437 77.76738458 -49.28808594 76.14819336 C-49.32351501 75.11299057 -49.35894409 74.07778778 -49.39544678 73.01121521 C-49.51925761 68.24779113 -49.61007352 63.48448801 -49.6796875 58.7199707 C-49.72633878 56.21035865 -49.7944958 53.70104884 -49.88476562 51.19262695 C-50.62001437 30.41224767 -50.62001437 30.41224767 -46.78588867 24.703125 C-43.92563063 22.59215308 -41.30517416 21.2827158 -38 20 C-36.57443497 19.15301742 -35.16221209 18.28284317 -33.76953125 17.3828125 C-32.4538003 16.62448963 -31.13475228 15.87189385 -29.8125 15.125 C-25.32349008 12.5509891 -20.87349676 9.95099111 -16.52734375 7.140625 C-15.80893311 6.67769043 -15.09052246 6.21475586 -14.3503418 5.73779297 C-12.98246461 4.85025485 -11.62028742 3.95384921 -10.26489258 3.04736328 C-6.61431301 0.68782495 -4.33129129 -0.48792991 0 0 Z " fill="#2D2828" transform="translate(49,1)"/>
<path d="M0 0 C4.65772385 1.65069271 8.65813665 4.13479318 12.83984375 6.7421875 C13.72526855 7.28399658 14.61069336 7.82580566 15.52294922 8.3840332 C21.13850917 11.83085711 26.72493312 15.32591657 32.25390625 18.91015625 C34.13147758 20.14946348 34.13147758 20.14946348 36.15234375 21.1171875 C34.96399196 24.68224288 34.25530509 24.93530514 31.1015625 26.75390625 C30.26310791 27.24528076 29.42465332 27.73665527 28.56079102 28.24291992 C27.66287842 28.75830322 26.76496582 29.27368652 25.83984375 29.8046875 C18.88427271 33.86812408 12.12928369 38.02018899 5.5625 42.69140625 C2.93920289 44.24327569 1.17581328 44.80279395 -1.84765625 45.1171875 C-4.02905273 44.27197266 -4.02905273 44.27197266 -6.21875 42.90625 C-7.4421106 42.15782837 -7.4421106 42.15782837 -8.69018555 41.39428711 C-9.54652588 40.84909424 -10.40286621 40.30390137 -11.28515625 39.7421875 C-12.60737183 38.9214978 -12.60737183 38.9214978 -13.95629883 38.08422852 C-15.74398156 36.97096537 -17.52747586 35.8509472 -19.30664062 34.72412109 C-21.60622079 33.26987084 -23.91847395 31.83963008 -26.23828125 30.41796875 C-35.70779723 24.53676457 -35.70779723 24.53676457 -36.84765625 21.1171875 C-35.73390625 20.43914063 -34.62015625 19.76109375 -33.47265625 19.0625 C-32.37679199 18.39395996 -32.37679199 18.39395996 -31.25878906 17.71191406 C-29.63955781 16.72489785 -28.01909516 15.73989917 -26.39746094 14.75683594 C-22.3199994 12.27663206 -18.27764784 9.7640025 -14.30078125 7.125 C-13.59179688 6.66077637 -12.8828125 6.19655273 -12.15234375 5.71826172 C-10.80972517 4.83541343 -9.47585507 3.93907489 -8.15234375 3.02783203 C-5.38399463 1.2224187 -3.33034867 0.13705139 0 0 Z " fill="#F07F13" transform="translate(46.84765625,7.8828125)"/>
<path d="M0 0 C1.22652625 0.71986305 2.43712324 1.46800368 3.625 2.25 C4.553125 2.848125 5.48125 3.44625 6.4375 4.0625 C11.21760132 8.84260132 11.82848644 13.26515627 12 19.8125 C11.81524375 26.54070692 10.37967178 30.4751343 5.875 35.4375 C1.3919611 39.6238672 -3.20774447 41.39768772 -9.3125 41.6875 C-15.3049852 41.46926078 -19.82289637 39.74539021 -24.1328125 35.53125 C-29.73521713 29.14396743 -30.99762455 24.51396715 -30.75 15.99609375 C-30.14840568 9.98641713 -28.08297494 6.60244212 -23.58984375 2.69921875 C-16.67994461 -2.50887933 -7.95424688 -3.86349134 0 0 Z " fill="#FCFBFC" transform="translate(437.375,35.75)"/>
<path d="M0 0 C20.57142857 0 20.57142857 0 27 5.625 C29.54940308 9.9271177 29.98442888 13.11270264 29 18 C27.88349907 20.34321439 26.66404694 21.97194279 25 24 C25.78375 24.598125 26.5675 25.19625 27.375 25.8125 C29.9779142 27.98159517 31.7634874 29.58092438 32.3359375 33.015625 C32.43862655 38.88943877 31.65053717 42.31982414 28 47 C21 50 21 50 0 50 C0 33.5 0 17 0 0 Z " fill="#302C2D" transform="translate(351,30)"/>
<path d="M0 0 C3.94456125 1.99438589 7.48127116 4.33202765 11 7 C7.76695523 10.59090087 5.04822608 12.56185947 0.63134766 14.67602539 C-2.72096517 16.3669727 -5.64944439 18.01515389 -8 21 C-9.9902866 27.10889155 -9.45021015 33.67776312 -9 40 C-12.66563092 39.4360259 -15.21714248 38.49367602 -18.328125 36.48828125 C-19.12863281 35.97716797 -19.92914063 35.46605469 -20.75390625 34.93945312 C-21.57761719 34.40255859 -22.40132812 33.86566406 -23.25 33.3125 C-24.05824219 32.79494141 -24.86648437 32.27738281 -25.69921875 31.74414062 C-27.3225471 30.70131449 -28.94173593 29.65201531 -30.55664062 28.59619141 C-32.23587101 27.49918818 -33.92253744 26.41351008 -35.61523438 25.33740234 C-36.43830078 24.80711426 -37.26136719 24.27682617 -38.109375 23.73046875 C-39.23037598 23.01540161 -39.23037598 23.01540161 -40.37402344 22.28588867 C-40.9105957 21.86154541 -41.44716797 21.43720215 -42 21 C-42 20.34 -42 19.68 -42 19 C-40.33862305 17.7824707 -40.33862305 17.7824707 -38.01171875 16.42578125 C-37.16536865 15.92594727 -36.31901855 15.42611328 -35.44702148 14.91113281 C-34.53637939 14.38358398 -33.6257373 13.85603516 -32.6875 13.3125 C-25.51277585 9.19655601 -25.51277585 9.19655601 -18.609375 4.65234375 C-12.52161642 0.31793085 -7.5036168 -1.91001155 0 0 Z " fill="#F9F9F9" transform="translate(52,60)"/>
<path d="M0 0 C1.4540625 0.0309375 1.4540625 0.0309375 2.9375 0.0625 C3.21722656 0.75472656 3.49695313 1.44695313 3.78515625 2.16015625 C6.11452174 7.84500642 8.5581635 13.44713551 11.1875 19 C14.2031498 25.38593185 17.06859979 31.83197481 19.875 38.3125 C20.27686523 39.23023193 20.67873047 40.14796387 21.09277344 41.09350586 C21.64819824 42.38526733 21.64819824 42.38526733 22.21484375 43.703125 C22.54734131 44.47172852 22.87983887 45.24033203 23.22241211 46.03222656 C23.9375 48.0625 23.9375 48.0625 23.9375 51.0625 C21.9575 51.0625 19.9775 51.0625 17.9375 51.0625 C17.53917969 49.95841797 17.53917969 49.95841797 17.1328125 48.83203125 C16.77960938 47.85621094 16.42640625 46.88039062 16.0625 45.875 C15.71445313 44.91207031 15.36640625 43.94914062 15.0078125 42.95703125 C14.02856003 40.30876087 12.98612941 37.68407353 11.9375 35.0625 C4.0175 35.0625 -3.9025 35.0625 -12.0625 35.0625 C-14.42871262 40.38647841 -16.7819345 45.70317107 -19.0625 51.0625 C-20.7125 51.0625 -22.3625 51.0625 -24.0625 51.0625 C-23.36296249 46.36823514 -21.64233056 42.27901378 -19.8125 37.9375 C-19.49603516 37.17759766 -19.17957031 36.41769531 -18.85351562 35.63476562 C-16.79605505 30.72273501 -14.63373396 25.86922379 -12.390625 21.0390625 C-10.27030208 16.28704466 -8.32919515 11.46104437 -6.38476562 6.63476562 C-3.72419228 0.07600392 -3.72419228 0.07600392 0 0 Z " fill="#4A4748" transform="translate(210.0625,29.9375)"/>
<path d="M0 0 C2.90394028 2.19408821 5.41949306 4.38008027 7.8125 7.125 C7.8125 8.115 7.8125 9.105 7.8125 10.125 C5.125 10.5 5.125 10.5 1.8125 10.125 C0.57830444 8.66345263 -0.65043133 7.19442078 -1.79296875 5.66015625 C-4.9270436 2.21004023 -9.19232853 1.35016042 -13.6796875 0.84375 C-19.17650744 0.64325809 -23.38888357 1.22772216 -28.1875 4.125 C-32.94416982 8.61476249 -35.80324556 12.06828095 -36.42578125 18.640625 C-36.62173705 25.86004924 -35.7546131 31.1971676 -30.796875 36.65625 C-25.74903746 41.22587135 -20.2791744 42.67250864 -13.625 42.50390625 C-7.62845721 41.57175136 -2.10288867 38.58546245 1.875 34 C3.92431893 31.23610633 3.92431893 31.23610633 4.8125 28.125 C-4.4275 28.125 -13.6675 28.125 -23.1875 28.125 C-23.1875 26.475 -23.1875 24.825 -23.1875 23.125 C-11.9675 23.125 -0.7475 23.125 10.8125 23.125 C8.84806774 33.92937743 7.74438408 37.32333935 -0.1875 43.4375 C-7.86378103 47.75540808 -15.54325244 48.03394449 -24.1875 47.125 C-27.38906531 45.95109272 -29.672798 44.40375465 -32.1875 42.125 C-33.156875 41.25875 -34.12625 40.3925 -35.125 39.5 C-37.1875 37.125 -37.1875 37.125 -38.1875 34.125 C-38.8475 34.125 -39.5075 34.125 -40.1875 34.125 C-42.98991987 26.59349659 -44.02530119 17.23650004 -40.625 9.75 C-31.34981431 -5.56859936 -15.06523159 -8.86190093 0 0 Z " fill="#332F30" transform="translate(160.1875,33.875)"/>
<path d="M0 0 C9.14994207 4.61545751 14.17878966 10.84886897 17.375 20.4375 C18.2935469 28.70442209 15.8772141 34.50645988 11.375 41.4375 C9.2445025 43.82029325 7.04463596 45.69041642 4.375 47.4375 C3.63894531 47.97375 2.90289062 48.51 2.14453125 49.0625 C-1.38208884 50.81337486 -4.52006956 50.93297569 -8.375 50.875 C-9.0858374 50.86597656 -9.7966748 50.85695312 -10.52905273 50.84765625 C-18.74534222 50.5775625 -23.89323481 48.6032279 -29.5 42.625 C-35.86085798 34.55217096 -36.66445317 27.64304025 -35.625 17.4375 C-33.94288093 11.18962917 -29.6397558 6.38439549 -24.625 2.4375 C-16.91564632 -1.88417054 -8.33159933 -3.38471223 0 0 Z M-27.0625 11 C-31.46011921 17.86028597 -31.58881432 24.46717466 -30.625 32.4375 C-29.1467507 35.75490895 -27.28723988 37.99606201 -24.625 40.4375 C-23.779375 41.22125 -22.93375 42.005 -22.0625 42.8125 C-16.41271394 46.57902404 -11.32618454 47.25596529 -4.625 46.4375 C1.02176451 44.68471243 5.85781401 41.19802244 9.375 36.4375 C12.48432176 30.17626304 12.41430673 22.74818162 10.79296875 16.0234375 C8.36003369 10.26882397 3.75886338 7.30294479 -1.625 4.4375 C-11.35262647 1.19495784 -20.09178084 3.67180806 -27.0625 11 Z " fill="#312D2E" transform="translate(437.625,30.5625)"/>
<path d="M0 0 C1.20344563 6.01722816 2.25039215 12.12091316 0 18 C-4.59257041 23.03446722 -11.23365446 25.73465414 -17.28369141 28.63867188 C-21.43877073 30.72106647 -25.2942086 33.22062347 -29.1875 35.75 C-35.85155082 40 -35.85155082 40 -37 40 C-38.50535861 33.9158423 -39.62903666 27.90914027 -37 22 C-31.187798 16.09789844 -23.44054335 12.45636121 -16.14990234 8.69384766 C-11.99250915 6.45822574 -8.08216653 3.90676802 -4.15551758 1.29174805 C-2 0 -2 0 0 0 Z " fill="#F6F6F6" transform="translate(87,61)"/>
<path d="M0 0 C3.54856726 1.4194269 5.77339021 2.36494318 8.75 4.4375 C13.47103039 7.66259913 18.25881907 10.77506565 23.0625 13.875 C23.83754883 14.37572021 24.61259766 14.87644043 25.41113281 15.39233398 C27.27372738 16.59545028 29.13668213 17.79800435 31 19 C28.67513477 21.527314 26.21226941 23.24053816 23.2890625 25.03125 C22.37382812 25.59457031 21.45859375 26.15789063 20.515625 26.73828125 C19.56171875 27.31964844 18.6078125 27.90101562 17.625 28.5 C16.67882812 29.08136719 15.73265625 29.66273437 14.7578125 30.26171875 C12.17524844 31.84680371 9.59008868 33.42724318 7 35 C6.1136084 35.55751953 5.2272168 36.11503906 4.31396484 36.68945312 C2 38 2 38 0 38 C0 25.46 0 12.92 0 0 Z " fill="#F6F6F6" transform="translate(6,36)"/>
<path d="M0 0 C9.9 0 19.8 0 30 0 C29.12776324 6.1056573 28.64572546 8.25019053 25.6484375 13.16796875 C25.31131744 13.72889725 24.97419739 14.28982574 24.62686157 14.86775208 C23.55379496 16.64787413 22.46502557 18.41772305 21.375 20.1875 C20.66686783 21.35415018 19.95982821 22.52146425 19.25390625 23.68945312 C18.20577898 25.42247453 17.15651618 27.1547177 16.10223389 28.88400269 C12.65270738 34.54301859 9.32286896 40.26565264 6 46 C14.25 46 22.5 46 31 46 C31 47.65 31 49.3 31 51 C20.44 51 9.88 51 -1 51 C-1 44.25394495 -1 44.25394495 1.2734375 40.85546875 C1.76408691 40.10394531 2.25473633 39.35242188 2.76025391 38.578125 C3.29312012 37.78921875 3.82598633 37.0003125 4.375 36.1875 C5.4763026 34.50543879 6.57521335 32.82180942 7.671875 31.13671875 C8.22810547 30.2864209 8.78433594 29.43612305 9.35742188 28.56005859 C11.89419885 24.60633633 14.26702539 20.56213512 16.625 16.5 C20.84046053 9.23930921 20.84046053 9.23930921 23 6 C11.615 5.505 11.615 5.505 0 5 C0 3.35 0 1.7 0 0 Z " fill="#3B3738" transform="translate(252,30)"/>
<path d="M0 0 C9.24 0 18.48 0 28 0 C28 1.65 28 3.3 28 5 C20.41 5 12.82 5 5 5 C5 10.94 5 16.88 5 23 C11.93 23 18.86 23 26 23 C26 24.32 26 25.64 26 27 C19.07 27 12.14 27 5 27 C5 33.27 5 39.54 5 46 C12.26 46 19.52 46 27 46 C27 47.32 27 48.64 27 50 C18.09 50 9.18 50 0 50 C0 33.5 0 17 0 0 Z " fill="#2D2929" transform="translate(302,30)"/>
<path d="M0 0 C8.46821819 -0.28544556 13.706106 -0.24464471 20.9375 4.1875 C22.75217864 7.28312827 22.500025 10.56232811 22 14 C20.53128213 17.10062661 19.48920763 17.80090387 16.3125 19.09375 C12.75521627 20.06696913 9.80378178 20.20007718 6.125 20.125 C3.093125 20.063125 3.093125 20.063125 0 20 C0 13.4 0 6.8 0 0 Z " fill="#F4F4F4" transform="translate(356,56)"/>
<path d="M0 0 C1.4540625 0.0309375 1.4540625 0.0309375 2.9375 0.0625 C3.21722656 0.75472656 3.49695313 1.44695313 3.78515625 2.16015625 C6.11452174 7.84500642 8.5581635 13.44713551 11.1875 19 C14.2031498 25.38593185 17.06859979 31.83197481 19.875 38.3125 C20.27686523 39.23023193 20.67873047 40.14796387 21.09277344 41.09350586 C21.64819824 42.38526733 21.64819824 42.38526733 22.21484375 43.703125 C22.54734131 44.47172852 22.87983887 45.24033203 23.22241211 46.03222656 C23.9375 48.0625 23.9375 48.0625 23.9375 51.0625 C21.9575 51.0625 19.9775 51.0625 17.9375 51.0625 C17.30932296 49.37618008 16.68513107 47.68837549 16.0625 46 C15.71445313 45.06027344 15.36640625 44.12054688 15.0078125 43.15234375 C13.85711809 39.83044859 12.9032956 36.4427846 11.9375 33.0625 C4.0175 33.0625 -3.9025 33.0625 -12.0625 33.0625 C-11.4025 32.0725 -10.7425 31.0825 -10.0625 30.0625 C-7.99951172 29.72192383 -7.99951172 29.72192383 -5.4921875 29.76953125 C-4.59628906 29.77919922 -3.70039063 29.78886719 -2.77734375 29.79882812 C-1.37162109 29.8365332 -1.37162109 29.8365332 0.0625 29.875 C1.47982422 29.89530273 1.47982422 29.89530273 2.92578125 29.91601562 C5.26358779 29.95143694 7.60026237 30.00082729 9.9375 30.0625 C9.6806543 29.48749756 9.42380859 28.91249512 9.15917969 28.32006836 C7.13123724 23.77040307 5.12163114 19.21557668 3.1875 14.625 C2.75953125 13.61566406 2.3315625 12.60632813 1.890625 11.56640625 C0.9375 9.0625 0.9375 9.0625 0.9375 7.0625 C-0.0525 7.3925 -1.0425 7.7225 -2.0625 8.0625 C-2.7225 7.7325 -3.3825 7.4025 -4.0625 7.0625 C-4.10504356 5.06295254 -4.10330783 3.06208364 -4.0625 1.0625 C-3.0625 0.0625 -3.0625 0.0625 0 0 Z " fill="#2F2C2C" transform="translate(210.0625,29.9375)"/>
<path d="M0 0 C0.99 0.33 1.98 0.66 3 1 C3 4.94720688 1.47490891 6.01555103 -1 9 C-4.56051956 14.51754273 -3.75126398 21.73287678 -3 28 C-0.57538029 33.61006836 3.7598632 37.08881289 9 40 C12.16245541 41.0541518 14.86948218 41.31275672 18.1875 41.5625 C19.27417969 41.64628906 20.36085938 41.73007813 21.48046875 41.81640625 C22.72763672 41.90728516 22.72763672 41.90728516 24 42 C24.33 42.99 24.66 43.98 25 45 C18.69883477 47.10038841 11.38453597 46.92121715 5.1875 44.5 C-0.86733717 41.3901653 -6.19303479 35.61776479 -8.5625 29.17578125 C-10.08471981 21.60545597 -10.2803154 13.383859 -6.22265625 6.62109375 C-4.34547668 4.13218155 -2.33096171 2.07196597 0 0 Z " fill="#312E2E" transform="translate(411,35)"/>
<path d="M0 0 C13.10893513 -0.4369645 13.10893513 -0.4369645 18 3 C19.44430855 5.88861709 19.37688506 7.79647701 19 11 C16.827365 13.57285724 15.02006162 15.48996919 12 17 C9.95944995 17.07065617 7.91665743 17.08421976 5.875 17.0625 C2.966875 17.0315625 2.966875 17.0315625 0 17 C0 11.39 0 5.78 0 0 Z " fill="#F7F7F7" transform="translate(356,35)"/>
<path d="M0 0 C5.28 0 10.56 0 16 0 C18 2 18 2 18 4 C11.565 4.495 11.565 4.495 5 5 C4.67 10.61 4.34 16.22 4 22 C3.34 22 2.68 22 2 22 C2 23.65 2 25.3 2 27 C2.66 27 3.32 27 4 27 C4.33 33.27 4.66 39.54 5 46 C9.29 46.33 13.58 46.66 18 47 C18.33 47.99 18.66 48.98 19 50 C12.73 50 6.46 50 0 50 C0 33.5 0 17 0 0 Z " fill="#302C2D" transform="translate(351,30)"/>
<path d="M0 0 C0.66 0 1.32 0 2 0 C3.15447871 2.53804458 4.29868427 5.07993629 5.4375 7.625 C5.76298828 8.33785156 6.08847656 9.05070312 6.42382812 9.78515625 C6.73642578 10.48769531 7.04902344 11.19023438 7.37109375 11.9140625 C7.65911865 12.5529541 7.94714355 13.1918457 8.24389648 13.85009766 C9 16 9 16 10 22 C4.06 22 -1.88 22 -8 22 C-7.21342288 17.28053731 -6.4023476 14.14431994 -4.5625 9.875 C-4.13066406 8.86179687 -3.69882813 7.84859375 -3.25390625 6.8046875 C-2.2243178 4.5017451 -1.15352893 2.24267485 0 0 Z " fill="#F0F0F0" transform="translate(209,37)"/>
<path d="M0 0 C0.74636719 0.10570312 1.49273437 0.21140625 2.26171875 0.3203125 C1.64359999 5.4197923 0.10582024 7.34313489 -2.73828125 12.3203125 C5.51171875 12.3203125 13.76171875 12.3203125 22.26171875 12.3203125 C22.26171875 13.9703125 22.26171875 15.6203125 22.26171875 17.3203125 C11.70171875 17.3203125 1.14171875 17.3203125 -9.73828125 17.3203125 C-9.73828125 11.42551642 -9.51569763 10.11078859 -6.55078125 5.4453125 C-5.95910156 4.47851562 -5.36742187 3.51171875 -4.7578125 2.515625 C-2.73828125 0.3203125 -2.73828125 0.3203125 0 0 Z " fill="#555253" transform="translate(260.73828125,63.6796875)"/>
<path d="M0 0 C11.22 0 22.44 0 34 0 C33.34 2.97 32.68 5.94 32 9 C30.68 8.34 29.36 7.68 28 7 C28 6.34 28 5.68 28 5 C18.76 5 9.52 5 0 5 C0 3.35 0 1.7 0 0 Z " fill="#3A3637" transform="translate(137,57)"/>
<path d="M0 0 C0.33 1.32 0.66 2.64 1 4 C1.66 4 2.32 4 3 4 C2.48665484 8.87677905 0.92144643 12.96204344 -0.96484375 17.4375 C-2.09906636 20.24523597 -3.04240707 23.12722121 -4 26 C2.27 25.67 8.54 25.34 15 25 C15 25.66 15 26.32 15 27 C11.70849875 27.08685287 8.4172904 27.14033895 5.125 27.1875 C4.18785156 27.21263672 3.25070313 27.23777344 2.28515625 27.26367188 C0.94130859 27.27817383 0.94130859 27.27817383 -0.4296875 27.29296875 C-1.67081299 27.31653442 -1.67081299 27.31653442 -2.93701172 27.34057617 C-3.61779785 27.22818604 -4.29858398 27.1157959 -5 27 C-5.66 26.01 -6.32 25.02 -7 24 C-7.66 24 -8.32 24 -9 24 C-8.40227336 20.56506424 -7.52472216 17.55768504 -6.15234375 14.35546875 C-5.79462891 13.51435547 -5.43691406 12.67324219 -5.06835938 11.80664062 C-4.50858398 10.51016602 -4.50858398 10.51016602 -3.9375 9.1875 C-3.37192383 7.86202148 -3.37192383 7.86202148 -2.79492188 6.50976562 C-1.86751446 4.33798876 -0.93576366 2.16818633 0 0 Z " fill="#3D3A3B" transform="translate(205,33)"/>
<path d="M0 0 C0.33 0 0.66 0 1 0 C1.04898437 0.67546875 1.09796875 1.3509375 1.1484375 2.046875 C1.22320312 2.93890625 1.29796875 3.8309375 1.375 4.75 C1.44460938 5.63171875 1.51421875 6.5134375 1.5859375 7.421875 C1.85293438 10.0116179 1.85293438 10.0116179 3.15234375 12.08984375 C4 14 4 14 3.41796875 15.89453125 C-0.72837047 22.35755525 -5.96068983 27.93702364 -13.5625 29.9375 C-14.366875 29.958125 -15.17125 29.97875 -16 30 C-15.505 28.515 -15.505 28.515 -15 27 C-15.33 26.34 -15.66 25.68 -16 25 C-15.48050781 24.76925781 -14.96101563 24.53851563 -14.42578125 24.30078125 C-9.08524022 21.80326391 -4.54800489 19.25081028 -1.90625 13.703125 C-0.93349107 10.80161992 -0.59530997 8.2351212 -0.375 5.1875 C-0.30023438 4.21167969 -0.22546875 3.23585937 -0.1484375 2.23046875 C-0.09945313 1.49441406 -0.05046875 0.75835937 0 0 Z " fill="#353232" transform="translate(449,51)"/>
<path d="M0 0 C0.99 0 1.98 0 3 0 C3.66 0.99 4.32 1.98 5 3 C3.04646127 6.29453474 1.08636221 9.58511786 -0.875 12.875 C-1.70837891 14.28072266 -1.70837891 14.28072266 -2.55859375 15.71484375 C-3.09355469 16.61074219 -3.62851562 17.50664063 -4.1796875 18.4296875 C-4.67194824 19.25710449 -5.16420898 20.08452148 -5.67138672 20.93701172 C-7 23 -7 23 -9 25 C-9 24.34 -9 23.68 -9 23 C-9.99 23.33 -10.98 23.66 -12 24 C-12.33 23.34 -12.66 22.68 -13 22 C-11.86460167 19.71118114 -10.68330536 17.5622474 -9.375 15.375 C-9.00544189 14.74706543 -8.63588379 14.11913086 -8.25512695 13.47216797 C-7.51543087 12.2194803 -6.77207572 10.96894534 -6.02490234 9.72070312 C-5.152382 8.25583334 -4.30227275 6.77765252 -3.45703125 5.296875 C-2.1875 3.125 -2.1875 3.125 0 0 Z " fill="#322E2F" transform="translate(272,41)"/>
<path d="M0 0 C1.32 0.66 2.64 1.32 4 2 C1.37078658 7.9157302 -2.32123824 11.88224845 -8 15 C-11.875 15.75 -11.875 15.75 -15 16 C-15.33 14.68 -15.66 13.36 -16 12 C-15.34773437 11.72027344 -14.69546875 11.44054687 -14.0234375 11.15234375 C-7.78414028 8.29036523 -4.10239663 5.5058481 0 0 Z " fill="#332F30" transform="translate(165,64)"/>
<path d="M0 0 C2.475 0.495 2.475 0.495 5 1 C5 1.66 5 2.32 5 3 C13.25 3 21.5 3 30 3 C30 3.99 30 4.98 30 6 C20.1 6 10.2 6 0 6 C0 4.02 0 2.04 0 0 Z " fill="#1E191A" transform="translate(252,74)"/>
<path d="M0 0 C6.09781001 -0.22084624 11.21642935 -0.01167675 17 2 C16.01 2.99 15.02 3.98 14 5 C14.33 5.66 14.66 6.32 15 7 C14.30519531 6.83628906 13.61039063 6.67257813 12.89453125 6.50390625 C9.7647184 5.95904004 6.86201917 5.90261517 3.6875 5.9375 C2.08455078 5.95103516 2.08455078 5.95103516 0.44921875 5.96484375 C-0.35902344 5.97644531 -1.16726562 5.98804688 -2 6 C-1.34 4.02 -0.68 2.04 0 0 Z " fill="#3D393A" transform="translate(139,29)"/>
<path d="M0 0 C0.66 0 1.32 0 2 0 C2.83986084 1.93467942 3.67168027 3.87285129 4.5 5.8125 C5.19609375 7.43091797 5.19609375 7.43091797 5.90625 9.08203125 C7 12 7 12 7 15 C5.02 15 3.04 15 1 15 C0.46605821 13.5882217 -0.05165104 12.17029756 -0.5625 10.75 C-0.85253906 9.96109375 -1.14257812 9.1721875 -1.44140625 8.359375 C-2.23294711 5.01608354 -1.50426687 3.00853375 0 0 Z " fill="#3A3637" transform="translate(227,66)"/>
<path d="M0 0 C0.66 0 1.32 0 2 0 C2.33 6.27 2.66 12.54 3 19 C7.29 19.33 11.58 19.66 16 20 C15.67 20.66 15.34 21.32 15 22 C10.05 22 5.1 22 0 22 C0 14.74 0 7.48 0 0 Z " fill="#201C1D" transform="translate(353,57)"/>
<path d="M0 0 C4.95 0 9.9 0 15 0 C15.33 0.66 15.66 1.32 16 2 C9.565 2.495 9.565 2.495 3 3 C2.67 8.61 2.34 14.22 2 20 C1.34 20 0.68 20 0 20 C0 13.4 0 6.8 0 0 Z " fill="#211D1E" transform="translate(353,32)"/>
<path d="M0 0 C1.40403242 4.21209727 -0.16298908 6.05382839 -2 10 C-2.67276716 11.6642135 -3.34206835 13.32986582 -4 15 C-5.65 15 -7.3 15 -9 15 C-8.39093223 10.85833913 -7.21738337 7.56365184 -5 4 C-2.3125 2.625 -2.3125 2.625 0 2 C0 1.34 0 0.68 0 0 Z " fill="#3D3A3B" transform="translate(195,66)"/>
<path d="M0 0 C6.27 0 12.54 0 19 0 C19.33 0.99 19.66 1.98 20 3 C16.83990467 4.05336511 14.4446864 4.20032888 11.125 4.25 C9.58199219 4.28867188 9.58199219 4.28867188 8.0078125 4.328125 C4.61178013 3.95764874 2.73879965 3.00104181 0 1 C0 0.67 0 0.34 0 0 Z " fill="#262223" transform="translate(416,77)"/>
<path d="M0 0 C2.03125 -0.38818359 2.03125 -0.38818359 4.5 -0.3984375 C5.8303125 -0.40423828 5.8303125 -0.40423828 7.1875 -0.41015625 C8.115625 -0.39855469 9.04375 -0.38695312 10 -0.375 C10.928125 -0.38660156 11.85625 -0.39820313 12.8125 -0.41015625 C13.699375 -0.40628906 14.58625 -0.40242188 15.5 -0.3984375 C16.3146875 -0.39505371 17.129375 -0.39166992 17.96875 -0.38818359 C18.97421875 -0.19603271 18.97421875 -0.19603271 20 0 C20.66 0.99 21.32 1.98 22 3 C14.08 3 6.16 3 -2 3 C-1.34 2.01 -0.68 1.02 0 0 Z " fill="#1B1617" transform="translate(200,60)"/>
<path d="M0 0 C1.95803507 -0.05389087 3.91648909 -0.09274217 5.875 -0.125 C7.51082031 -0.15980469 7.51082031 -0.15980469 9.1796875 -0.1953125 C12 0 12 0 14 2 C14 2.66 14 3.32 14 4 C12.22950311 4.05410687 10.45853151 4.09284119 8.6875 4.125 C7.20830078 4.15980469 7.20830078 4.15980469 5.69921875 4.1953125 C3 4 3 4 0 2 C0 1.34 0 0.68 0 0 Z " fill="#262223" transform="translate(137,77)"/>
<path d="M0 0 C0.66 0 1.32 0 2 0 C2 0.66 2 1.32 2 2 C2.66 2 3.32 2 4 2 C4 5.3 4 8.6 4 12 C3.34 12 2.68 12 2 12 C1.67 12.99 1.34 13.98 1 15 C-0.44207941 12.11584117 -0.09394887 9.58278472 -0.0625 6.375 C-0.05347656 5.18648437 -0.04445313 3.99796875 -0.03515625 2.7734375 C-0.02355469 1.85820313 -0.01195313 0.94296875 0 0 Z " fill="#282425" transform="translate(118,48)"/>
<path d="M0 0 C0.33 1.32 0.66 2.64 1 4 C1.66 4 2.32 4 3 4 C2.49287967 7.71888239 1.88391785 10.73454239 0 14 C-0.66 13.34 -1.32 12.68 -2 12 C-2.66 12 -3.32 12 -4 12 C-2.66666667 8 -1.33333333 4 0 0 Z " fill="#373334" transform="translate(205,33)"/>
<path d="M0 0 C0.99 0.33 1.98 0.66 3 1 C3 4.90838866 1.49432124 6.11594107 -1 9 C-2.65 8.67 -4.3 8.34 -6 8 C-4.55746343 4.63408134 -2.66735273 2.48952921 0 0 Z " fill="#282425" transform="translate(411,35)"/>
<path d="M0 0 C0.33 0 0.66 0 1 0 C1.08121924 1.60332791 1.13929134 3.20784026 1.1875 4.8125 C1.22230469 5.70582031 1.25710938 6.59914063 1.29296875 7.51953125 C0.95081002 10.41647515 0.24606427 11.22555028 -2 13 C-3.41791045 5.62686567 -3.41791045 5.62686567 -1 2 C-0.67 1.34 -0.34 0.68 0 0 Z " fill="#211C1D" transform="translate(381,62)"/>
<path d="M0 0 C-1.67517239 3.53647504 -2.49280817 4.7911563 -6.1875 6.3125 C-7.5796875 6.6528125 -7.5796875 6.6528125 -9 7 C-8.39816251 4.97954558 -7.72693904 2.97888961 -7 1 C-4.53721199 -0.231394 -2.7204945 -0.07159196 0 0 Z " fill="#302D2E" transform="translate(140,30)"/>
<path d="M0 0 C2.21736634 1.10868317 4.03617993 2.49440461 6 4 C2.535 5.485 2.535 5.485 -1 7 C-1.99 6.01 -2.98 5.02 -4 4 C-2.68 2.68 -1.36 1.36 0 0 Z " fill="#3D393A" transform="translate(416,31)"/>
<path d="M0 0 C0.66 0.33 1.32 0.66 2 1 C1.34 1.66 0.68 2.32 0 3 C0 3.99 0 4.98 0 6 C-0.53109375 5.68289062 -1.0621875 5.36578125 -1.609375 5.0390625 C-4.54535848 3.7629651 -7.06174329 3.58292979 -10.25 3.375 C-11.32765625 3.30023438 -12.4053125 3.22546875 -13.515625 3.1484375 C-14.33546875 3.09945312 -15.1553125 3.05046875 -16 3 C-16 2.67 -16 2.34 -16 2 C-14.64455078 1.90912109 -14.64455078 1.90912109 -13.26171875 1.81640625 C-11.49248047 1.69072266 -11.49248047 1.69072266 -9.6875 1.5625 C-7.92986328 1.44068359 -7.92986328 1.44068359 -6.13671875 1.31640625 C-2.97409042 1.1132629 -2.97409042 1.1132629 0 0 Z " fill="#474344" transform="translate(372,74)"/>
<path d="M0 0 C1.65 0.33 3.3 0.66 5 1 C4.01 1.66 3.02 2.32 2 3 C2 3.99 2 4.98 2 6 C1.01 5.67 0.02 5.34 -1 5 C-3.05893621 4.77674186 -5.12233653 4.59294241 -7.1875 4.4375 C-8.27417969 4.35371094 -9.36085938 4.26992188 -10.48046875 4.18359375 C-11.31191406 4.12300781 -12.14335937 4.06242187 -13 4 C-13 3.67 -13 3.34 -13 3 C-12.14535156 2.95101562 -11.29070312 2.90203125 -10.41015625 2.8515625 C-9.30542969 2.77679688 -8.20070313 2.70203125 -7.0625 2.625 C-5.40927734 2.52058594 -5.40927734 2.52058594 -3.72265625 2.4140625 C-2.37494141 2.20910156 -2.37494141 2.20910156 -1 2 C-0.67 1.34 -0.34 0.68 0 0 Z " fill="#524F50" transform="translate(369,31)"/>
<path d="M0 0 C1.66666667 0 3.33333333 0 5 0 C4.67 4.29 4.34 8.58 4 13 C3.67 13 3.34 13 3 13 C3 10.36 3 7.72 3 5 C2.34 5 1.68 5 1 5 C0.67 3.35 0.34 1.7 0 0 Z " fill="#464243" transform="translate(119,45)"/>
<path d="M0 0 C0.33 0 0.66 0 1 0 C1.07347656 1.01320312 1.07347656 1.01320312 1.1484375 2.046875 C1.22320312 2.93890625 1.29796875 3.8309375 1.375 4.75 C1.44460938 5.63171875 1.51421875 6.5134375 1.5859375 7.421875 C1.99850055 9.99066382 2.71160957 11.75841015 4 14 C2.02 14.33 0.04 14.66 -2 15 C-1.34 10.05 -0.68 5.1 0 0 Z " fill="#5A5758" transform="translate(449,51)"/>
<path d="M0 0 C1.32 0.33 2.64 0.66 4 1 C3.67 2.65 3.34 4.3 3 6 C1.35 6.33 -0.3 6.66 -2 7 C-1.125 2.25 -1.125 2.25 0 0 Z " fill="#2D292A" transform="translate(275,36)"/>
<path d="M0 0 C0.33 0.99 0.66 1.98 1 3 C-3.75 7.875 -3.75 7.875 -6 9 C-5.8125 6.625 -5.8125 6.625 -5 4 C-2.4375 2.6875 -2.4375 2.6875 0 2 C0 1.34 0 0.68 0 0 Z " fill="#282324" transform="translate(195,66)"/>
<path d="M0 0 C0.66 0.33 1.32 0.66 2 1 C-0.64 3.64 -3.28 6.28 -6 9 C-6.33 8.34 -6.66 7.68 -7 7 C-2.25 1.125 -2.25 1.125 0 0 Z " fill="#D6D5D6" transform="translate(416,37)"/>
<path d="M0 0 C0.33 0.99 0.66 1.98 1 3 C-1.05233685 5.2477975 -2.00667261 6.0022242 -5 7 C-4.1875 4.0625 -4.1875 4.0625 -3 1 C-2.01 0.67 -1.02 0.34 0 0 Z " fill="#3C3839" transform="translate(201,49)"/>
<path d="M0 0 C1.65 0 3.3 0 5 0 C4.67 0.99 4.34 1.98 4 3 C4.33 3.66 4.66 4.32 5 5 C3.35 4.67 1.7 4.34 0 4 C0 2.66666667 0 1.33333333 0 0 Z " fill="#434041" transform="translate(135,76)"/>
</svg>
