<?xml version="1.0" encoding="UTF-8"?>
<svg version="1.1" xmlns="http://www.w3.org/2000/svg" width="320" height="320">
<path d="M0 0 C1.78187561 1.18937683 1.78187561 1.18937683 3.57055664 2.83666992 C4.26577423 3.47551117 4.96099182 4.11435242 5.67727661 4.77255249 C10.25656636 9.16400418 14.76507796 13.62214063 19.24609375 18.11328125 C20.30829045 19.17480293 21.37063543 20.23617624 22.43312073 21.29740906 C24.64250511 23.50532963 26.85009677 25.71502254 29.05639648 27.92602539 C31.8865068 30.76187442 34.72114035 33.59315327 37.55709743 36.42315388 C39.74385573 38.6063066 41.92823672 40.79182539 44.11189461 42.97807884 C45.15697887 44.02383021 46.20280656 45.06883917 47.24938774 46.11309242 C48.70441392 47.56558764 50.15621109 49.02123425 51.60717773 50.4777832 C52.84672462 51.71852348 52.84672462 51.71852348 54.11131287 52.98432922 C56.29365189 55.31339522 56.90402857 56.49614998 57.5 59.625 C55.85953436 70.6981431 38.63623871 82.81292936 30.72496986 90.82347107 C27.87985516 93.70450547 25.04439425 96.59380749 22.22949219 99.50439453 C19.48562227 102.3411727 16.72019814 105.15516668 13.93824387 107.95458984 C12.88829258 109.01858881 11.84610469 110.09031023 10.8122139 111.16992188 C1.76070816 120.60237151 1.76070816 120.60237151 -3.70947266 121.08984375 C-9.17822933 120.3417378 -12.31589751 116.82980531 -16 113 C-17.73525873 111.30719032 -19.47088072 109.61475295 -21.20678711 107.92260742 C-23.15295261 105.98952046 -25.08994796 104.04733949 -27.02734375 102.10546875 C-28.06712022 101.06636734 -29.10704498 100.02741429 -30.14710999 98.98860168 C-32.30941585 96.82775932 -34.46992954 94.66514564 -36.62915039 92.5012207 C-39.39872627 89.7259052 -42.17282616 86.95516168 -44.94824886 84.18569469 C-47.08868409 82.04886511 -49.22674181 79.9096695 -51.36407661 77.76973915 C-52.38683221 76.74631651 -53.41033108 75.72363609 -54.43458366 74.70171165 C-55.85846292 73.28036354 -57.27880848 71.85547808 -58.69897461 70.43041992 C-59.50757431 69.62102463 -60.31617401 68.81162933 -61.14927673 67.97770691 C-64.24386092 64.67079407 -64.59779268 61.91471182 -64.53198242 57.49002075 C-63.46027143 52.47372229 -59.51806035 49.43185388 -55.90625 46.02734375 C-55.08499634 45.21882462 -54.26374268 44.41030548 -53.41760254 43.57728577 C-50.7988177 41.00873898 -48.15046543 38.47330264 -45.5 35.9375 C-43.71540247 34.19805962 -41.93282484 32.45654433 -40.15234375 30.71289062 C-35.7913503 26.45093769 -31.40567402 22.21572312 -27 18 C-23.1789065 19.76883732 -20.80714922 22.02094223 -17.875 25.0625 C-14.75894235 28.46453483 -14.75894235 28.46453483 -11 31 C-11.020625 32.0725 -11.04125 33.145 -11.0625 34.25 C-11.0142016 37.14790424 -10.86844115 39.28612141 -10 42 C-8.68 42.33 -7.36 42.66 -6 43 C-5.8761052 47.89289165 -5.78552491 52.78486427 -5.7253418 57.67895508 C-5.70024653 59.34252839 -5.66616204 61.00599196 -5.62280273 62.66918945 C-5.5619254 65.06489153 -5.53374231 67.45913251 -5.51171875 69.85546875 C-5.48591232 70.5952446 -5.4601059 71.33502045 -5.43351746 72.09721375 C-5.43132534 76.16242238 -5.74902398 77.72360869 -8.52661133 80.7824707 C-9.75093872 81.88014771 -9.75093872 81.88014771 -11 83 C-11.06625411 86.8427383 -10.81899419 88.99200716 -8.375 92 C-4.88418213 93.46981805 -2.60851044 92.98413921 1 92 C3.16666667 90.5 3.16666667 90.5 4 88 C4.00082535 84.42243314 4.00082535 84.42243314 3 81 C2.49299561 80.59354248 1.98599121 80.18708496 1.46362305 79.76831055 C-0.8720181 76.94645086 -0.36727973 73.76446708 -0.29296875 70.26953125 C-0.28872391 69.51911057 -0.28447906 68.76868988 -0.28010559 67.99552917 C-0.2633245 65.60081974 -0.2256749 63.20695466 -0.1875 60.8125 C-0.17245235 59.1881632 -0.15876409 57.5638132 -0.14648438 55.93945312 C-0.11342305 51.95931052 -0.06164594 47.97979837 0 44 C0.45963135 44.39904541 0.9192627 44.79809082 1.39282227 45.20922852 C5.22768265 48.52470841 5.22768265 48.52470841 9.21484375 51.65234375 C11.0213432 53.00004969 12.5569955 54.26408712 14 56 C14.375 59.625 14.375 59.625 14 63 C14.28959104 64.34351253 14.614071 65.68092923 15 67 C18.02789419 67.66626866 20.89424952 68.10888274 24 68 C27.29388912 66.20653576 27.29388912 66.20653576 29 63 C29.33660145 59.35592863 29.33660145 59.35592863 28 56 C25.83928533 53.92023288 25.83928533 53.92023288 23 53 C22.2678125 53.11214844 21.535625 53.22429687 20.78125 53.33984375 C16.23948934 52.78488142 13.86401527 49.66570017 10.75 46.5 C10.11320312 45.89929688 9.47640625 45.29859375 8.8203125 44.6796875 C4.30375698 40.16313198 3.3782499 37.32217686 3 31 C0.41681893 28.70383905 -0.98580882 27.94663747 -4.44995117 28.12890625 C-7.62999168 27.9681536 -8.38387369 27.20566493 -10.55078125 24.9375 C-11.16630859 24.30585937 -11.78183594 23.67421875 -12.41601562 23.0234375 C-13.04185547 22.35570313 -13.66769531 21.68796875 -14.3125 21 C-14.95767578 20.33226563 -15.60285156 19.66453125 -16.26757812 18.9765625 C-17.85688927 17.32838797 -19.43337902 15.66970902 -21 14 C-19.32142583 10.41794159 -17.33406969 8.0959613 -14.5 5.3125 C-13.7059375 4.52488281 -12.911875 3.73726563 -12.09375 2.92578125 C-8.45601608 -0.42011954 -4.80302616 -1.00837477 0 0 Z " fill="#DD4B35" transform="translate(80,100)"/>
<path d="M0 0 C1.04414063 0.03818848 2.08828125 0.07637695 3.1640625 0.11572266 C10.11142776 0.37096105 17.05575646 0.67100031 24 1 C24 4.63 24 8.26 24 12 C21.36 12.66 18.72 13.32 16 14 C16.495 14.928125 16.495 14.928125 17 15.875 C18.89558342 21.79869819 18.94511719 27.67277247 16.3125 33.375 C12.93210137 39.24932909 8.23980533 41.660073 2 44 C-3.06920278 45.29957491 -7.9457523 44.94206616 -13.13671875 44.7421875 C-14.08160156 44.82726562 -15.02648437 44.91234375 -16 45 C-16.66 45.99 -17.32 46.98 -18 48 C-16.76765625 48.04898438 -15.5353125 48.09796875 -14.265625 48.1484375 C13.85304981 49.36616418 13.85304981 49.36616418 21 56 C24.34967171 60.9914516 23.53288711 67.26445194 23 73 C21.72284818 78.1268523 18.63653551 80.50154068 14.3125 83.3125 C6.84275414 87.7747868 -1.35453112 88.36923734 -9.875 88.3125 C-11.18718506 88.30512817 -11.18718506 88.30512817 -12.52587891 88.29760742 C-22.06724517 88.12491702 -30.12193132 87.05907048 -37 80 C-38.85437404 76.29125192 -38.46438653 72.04679692 -38 68 C-36.92473903 65.33767261 -35.65396201 63.37757038 -34 61 C-34.495 60.484375 -34.99 59.96875 -35.5 59.4375 C-37.66040714 55.9268384 -37.67890984 54.07345904 -37 50 C-35.39946921 47.73258138 -33.66002616 45.78603514 -31.7265625 43.796875 C-29.8140243 41.91225871 -29.8140243 41.91225871 -28 39 C-28.86625 38.7215625 -28.86625 38.7215625 -29.75 38.4375 C-33.77490305 35.86603416 -35.47880297 32.13409054 -36.578125 27.6328125 C-37.69010809 19.87310442 -36.15070716 13.48070274 -31.4375 7.1875 C-22.90039209 -1.70101429 -11.34451143 -0.46258781 0 0 Z M-18 17 C-19.14888518 20.94929279 -19.43129396 23.02958859 -17.75 26.8125 C-16.01308468 29.2102573 -16.01308468 29.2102573 -13 31 C-6.64966803 31.50564454 -6.64966803 31.50564454 -1 29 C1.46480098 25.30279853 1.7842673 22.28844034 1 18 C-0.7698823 14.8133497 -0.7698823 14.8133497 -4 13 C-9.62756527 11.85006352 -14.20797927 12.37847474 -18 17 Z M-21 65 C-23.1519437 68.22791555 -23.20086443 69.28400809 -23 73 C-15.96101202 77.06993618 -6.65025203 76.59236585 1.0625 74.8125 C3.29020191 74.09874142 3.29020191 74.09874142 4.625 71.375 C4.74875 70.59125 4.8725 69.8075 5 69 C0.88524639 64.88524639 -6.13562668 65.59306979 -11.6875 65.25 C-12.55439453 65.18167969 -13.42128906 65.11335938 -14.31445312 65.04296875 C-15.14267578 64.99269531 -15.97089844 64.94242187 -16.82421875 64.890625 C-17.95476685 64.81376465 -17.95476685 64.81376465 -19.1081543 64.73535156 C-19.73246338 64.82268555 -20.35677246 64.91001953 -21 65 Z " fill="#2E2606" transform="translate(197,129)"/>
<path d="M0 0 C1.97909398 -0.02686553 3.95828971 -0.04633375 5.9375 -0.0625 C7.03964844 -0.07410156 8.14179688 -0.08570312 9.27734375 -0.09765625 C12 0 12 0 13 1 C13.07319621 3.69654854 13.09242537 6.36691458 13.0625 9.0625 C13.05798828 9.82111328 13.05347656 10.57972656 13.04882812 11.36132812 C13.0370068 13.24091871 13.01907078 15.12046899 13 17 C14.14339844 16.98839844 15.28679687 16.97679688 16.46484375 16.96484375 C17.95572754 16.95546712 19.44661309 16.94636679 20.9375 16.9375 C21.69224609 16.92912109 22.44699219 16.92074219 23.22460938 16.91210938 C25.14994313 16.90347559 27.07535581 16.94775667 29 17 C30 18 30 18 30.1328125 20.6875 C30.13023437 21.780625 30.12765625 22.87375 30.125 24 C30.12886719 25.6396875 30.12886719 25.6396875 30.1328125 27.3125 C30 30 30 30 29 31 C26.30345146 31.07319621 23.63308542 31.09242537 20.9375 31.0625 C20.17888672 31.05798828 19.42027344 31.05347656 18.63867188 31.04882812 C16.75908129 31.0370068 14.87953101 31.01907078 13 31 C13.06875659 35.52122067 13.15666032 40.04150568 13.26245117 44.56201172 C13.2957373 46.10031779 13.32375778 47.63874707 13.34643555 49.17724609 C13.37991558 51.38692818 13.4322231 53.59547735 13.48828125 55.8046875 C13.49467117 56.49432587 13.5010611 57.18396423 13.50764465 57.89450073 C13.54025714 60.04685389 13.54025714 60.04685389 14 63 C17.73965964 65.49310643 19.29070641 65.0603261 23.6875 64.625 C24.86699219 64.51414062 26.04648437 64.40328125 27.26171875 64.2890625 C28.16535156 64.19367188 29.06898438 64.09828125 30 64 C31.59138085 68.17737474 32.21278058 71.53160785 32 76 C22.8348065 79.76007938 13.22509951 82.16201451 3.44140625 79.234375 C-0.25887752 77.5234181 -2.99747596 75.65166149 -5 72 C-6.29487016 68.11538953 -6.1232604 64.44116044 -6.09765625 60.39453125 C-6.0962413 59.55532639 -6.09482635 58.71612152 -6.09336853 57.85148621 C-6.08777215 55.17178784 -6.07522035 52.4921731 -6.0625 49.8125 C-6.05748453 47.99544392 -6.05292171 46.17838652 -6.04882812 44.36132812 C-6.03780391 39.90751987 -6.02054178 35.45377411 -6 31 C-8.97 31 -11.94 31 -15 31 C-15 27.04 -15 23.08 -15 19 C-12.89625 18.195625 -12.89625 18.195625 -10.75 17.375 C-6.25802402 15.35114269 -4.15435398 13.56723044 -2 9 C-1.15725702 6.02360715 -0.5149961 3.04931904 0 0 Z " fill="#2E2606" transform="translate(272,110)"/>
<path d="M0 0 C8.58 0 17.16 0 26 0 C26.33 16.17 26.66 32.34 27 49 C28.98 49.33 30.96 49.66 33 50 C33 53.63 33 57.26 33 61 C21.78 61 10.56 61 -1 61 C-1 57.37 -1 53.74 -1 50 C2.465 49.505 2.465 49.505 6 49 C6.33 37.12 6.66 25.24 7 13 C4.36 12.34 1.72 11.68 -1 11 C-0.67 7.37 -0.34 3.74 0 0 Z " fill="#2E2606" transform="translate(226,129)"/>
<path d="M0 0 C2.99215908 1.67462401 3.38059235 2.76118471 5 6 C5.77028946 9.95158493 5.36902633 13.15123944 3.75 16.875 C1.46299511 19.65207737 -0.60169872 20.75847523 -4.1484375 21.37109375 C-8.1875498 21.4915585 -11.16819376 21.38404371 -14.5 18.9375 C-17.52034899 15.38858993 -18.07999562 13.63974568 -18 9 C-15.42563933 -0.58126716 -8.93904262 -1.34928945 0 0 Z " fill="#2E2606" transform="translate(247,100)"/>
</svg>
