<?xml version="1.0" encoding="UTF-8"?>
<svg version="1.1" xmlns="http://www.w3.org/2000/svg" width="1200" height="540">
<path d="M0 0 C3.68131439 1.2271048 6.78832303 2.26727443 10.18188477 3.93603516 C10.94610245 4.3104776 11.71032013 4.68492004 12.49769592 5.07070923 C15.94926002 6.79154511 19.39856329 8.51647019 22.84057617 10.25634766 C24.65233356 11.16734523 26.46877325 12.06909093 28.28979492 12.96142578 C30.93475795 14.25796222 33.5638836 15.58260217 36.19140625 16.9140625 C36.99985489 17.30397369 37.80830353 17.69388489 38.64125061 18.09561157 C44.36561263 21.05423825 47.12535891 24.27679606 50 30 C50.54333984 31.03157227 51.08667969 32.06314453 51.64648438 33.12597656 C52.12408203 34.12081055 52.60167969 35.11564453 53.09375 36.140625 C53.64192383 37.27814209 54.19009766 38.41565918 54.75488281 39.58764648 C55.336816 40.80832258 55.91851511 42.02911029 56.5 43.25 C57.12057131 44.54444664 57.74134357 45.83879695 58.36230469 47.13305664 C62.92834837 56.66972737 67.39362845 66.2523808 71.82666016 75.8515625 C77.12116353 87.30426774 82.52543189 98.70414729 87.94238281 110.09936523 C95.35449063 125.70574158 102.6665449 141.35529578 110 157 C110.33 124 110.66 91 111 57 C128.53852901 62.84617634 144.46451627 72.73225813 161 81 C161 144.36 161 207.72 161 273 C157.62440063 271.64976025 154.94811083 270.49530366 151.91015625 268.671875 C151.13631592 268.2087793 150.36247559 267.74568359 149.56518555 267.26855469 C148.73929932 266.76743164 147.91341309 266.26630859 147.0625 265.75 C146.19729736 265.22567383 145.33209473 264.70134766 144.44067383 264.16113281 C141.62341818 262.44674167 138.81179595 260.7233282 136 259 C135.0193457 258.40445312 134.03869141 257.80890625 133.02832031 257.1953125 C130.07196312 255.39503488 127.12844328 253.57532741 124.1875 251.75 C123.27556885 251.19666992 122.3636377 250.64333984 121.42407227 250.07324219 C110.76537651 243.38349383 105.72960108 235.33431593 100.1875 224.1875 C99.5714889 222.97055391 98.95420244 221.75425263 98.33569336 220.53857422 C97.10898694 218.12575647 95.88708683 215.71060924 94.66894531 213.29345703 C92.51562959 209.04415494 90.29753303 204.83170381 88.0625 200.625 C83.8690126 192.6913041 79.74331688 184.72288839 75.625 176.75 C71.01495065 167.82550796 66.39795768 158.90483511 61.75 150 C61.32799316 149.19143555 60.90598633 148.38287109 60.47119141 147.54980469 C55.32328925 137.6950833 50.15895943 127.84892254 45 118 C44.67 149.02 44.34 180.04 44 212 C29.19759779 204.5987989 14.58813102 196.81507019 0 189 C0 126.63 0 64.26 0 0 Z " fill="#4C76CF" transform="translate(73,181)"/>
<path d="M0 0 C24 0 24 0 30 4 C31.82474496 6.0771033 33.48416053 8.10329747 35.125 10.3125 C36.08510142 11.56964938 37.04606908 12.82613758 38.0078125 14.08203125 C38.49926758 14.72865723 38.99072266 15.3752832 39.49707031 16.04150391 C41.94759821 19.23483315 44.47536277 22.3651773 47 25.5 C53.1756071 33.19837316 59.26931348 40.95959206 65.35449219 48.72949219 C66.7148839 50.46597492 68.07593218 52.2019393 69.4375 53.9375 C70.11329102 54.79891602 70.11329102 54.79891602 70.80273438 55.67773438 C74.6385768 60.55823176 78.5141616 65.40642778 82.41381836 70.23608398 C87.38220967 76.414509 92.16127669 82.70965969 97 89 C97.33 59.63 97.66 30.26 98 0 C107.9 0 117.8 0 128 0 C128 48.18 128 96.36 128 146 C103.13907285 146 103.13907285 146 98.1484375 141.23046875 C92.68041205 134.93139978 87.52787232 128.40898987 82.41455078 121.82177734 C80.15898765 118.91687363 77.89403988 116.01938529 75.625 113.125 C75.17737305 112.55378418 74.72974609 111.98256836 74.26855469 111.39404297 C70.70870458 106.86686963 67.08045636 102.39792619 63.4375 97.9375 C58.70287962 92.13920009 54.09336919 86.26486943 49.5546875 80.3125 C46.11565251 75.82561266 42.5663689 71.4263858 39.02124023 67.02319336 C38.54114502 66.42643799 38.0610498 65.82968262 37.56640625 65.21484375 C37.14302979 64.69011475 36.71965332 64.16538574 36.28344727 63.62475586 C34.82261658 61.77544481 33.41401272 59.88535029 32 58 C31.67 87.04 31.34 116.08 31 146 C20.77 146 10.54 146 0 146 C0 97.82 0 49.64 0 0 Z " fill="#4D76CE" transform="translate(475,207)"/>
<path d="M0 0 C3.7015051 3.14627934 6.93131063 6.47781774 9.796875 10.41796875 C10.415625 9.55171875 11.034375 8.68546875 11.671875 7.79296875 C18.69786203 -0.53194025 29.05186311 -3.79992626 39.58203125 -4.86328125 C50.47163372 -5.23932508 60.39055692 -2.63918717 68.796875 4.41796875 C78.55892858 14.18002233 79.99682004 27.09357652 80.02911186 40.30629444 C80.02332294 42.54542039 80.00795175 44.78436146 79.9921875 47.0234375 C79.98844884 48.59955158 79.98560591 50.17566802 79.98361206 51.75178528 C79.97604266 55.86331812 79.95645322 59.97470553 79.9342041 64.08618164 C79.90996566 69.03898362 79.90093276 73.99183472 79.88929749 78.94467926 C79.87002368 86.43587634 79.83165494 93.92675546 79.796875 101.41796875 C69.236875 101.41796875 58.676875 101.41796875 47.796875 101.41796875 C47.74080078 94.08578125 47.74080078 94.08578125 47.68359375 86.60546875 C47.65329569 83.49736147 47.62213594 80.38931019 47.58789062 77.28125 C47.53369009 72.35468462 47.4825756 67.42823 47.45043945 62.50146484 C47.42431201 58.52662233 47.38384408 54.55215454 47.33368874 50.57754517 C47.31708352 49.06585371 47.3055299 47.55409754 47.29926109 46.04232788 C47.62596545 33.33432883 47.62596545 33.33432883 41.9453125 22.44921875 C37.71605888 20.41917701 33.3534868 20.732169 28.796875 21.41796875 C25.77938529 22.70352649 24.97553501 23.73654105 22.796875 26.41796875 C20.1379092 34.02489302 20.44629513 41.89196715 20.3828125 49.85546875 C20.36407577 51.346202 20.34450053 52.83692493 20.3241272 54.32763672 C20.27306427 58.22700885 20.23330135 62.12641527 20.19598389 66.02593994 C20.14869681 70.71765577 20.087211 75.40920492 20.02813721 80.1007843 C19.94024037 87.20644421 19.87025105 94.31207729 19.796875 101.41796875 C9.566875 101.41796875 -0.663125 101.41796875 -11.203125 101.41796875 C-11.25210938 96.76960938 -11.30109375 92.12125 -11.3515625 87.33203125 C-11.38698929 84.3697712 -11.42297227 81.40753845 -11.4609375 78.4453125 C-11.52101392 73.75378534 -11.57914045 69.06229595 -11.625 64.37060547 C-11.66214381 60.5838557 -11.70857823 56.79731897 -11.76118851 53.01075363 C-11.77957924 51.57327423 -11.79474233 50.13574944 -11.80646896 48.69820023 C-11.38882056 35.06389503 -11.38882056 35.06389503 -16.140625 22.79296875 C-21.50202362 20.38581018 -26.59152177 20.40903835 -32.21208191 21.97918701 C-34.89563777 23.1482869 -36.33720339 24.13469166 -38.203125 26.41796875 C-39.44330851 32.02588699 -39.27481584 37.59276342 -39.203125 43.3125 C-39.21064578 44.98689151 -39.22168171 46.66127061 -39.23608398 48.33561707 C-39.26449472 52.73372977 -39.24524396 57.13038546 -39.21600342 61.52844238 C-39.19459711 66.01970909 -39.21834991 70.51071328 -39.23828125 75.00195312 C-39.27071478 83.80776834 -39.24861483 92.61221091 -39.203125 101.41796875 C-49.763125 101.41796875 -60.323125 101.41796875 -71.203125 101.41796875 C-71.203125 67.09796875 -71.203125 32.77796875 -71.203125 -2.58203125 C-63.613125 -2.58203125 -56.023125 -2.58203125 -48.203125 -2.58203125 C-43.203125 2.41796875 -43.203125 2.41796875 -41.203125 5.41796875 C-40.60886719 4.94746094 -40.01460937 4.47695313 -39.40234375 3.9921875 C-28.08671035 -4.50773619 -12.4912132 -8.96975416 0 0 Z " fill="#4C76CF" transform="translate(805.203125,251.58203125)"/>
<path d="M0 0 C74.23958333 0 74.23958333 0 86.5 6.6875 C87.16306152 7.03780273 87.82612305 7.38810547 88.50927734 7.74902344 C99.62370443 13.86318992 105.5223549 22.7129959 109.14453125 34.828125 C110.15353455 39.14715133 110.34600782 43.3269677 110.3125 47.75 C110.30686035 48.53568359 110.3012207 49.32136719 110.29541016 50.13085938 C110.02707095 63.10678717 106.20834176 73.47219795 97.5 83.1875 C83.6337447 96.25988572 64.12754084 98.19641816 46 98.0625 C42.04 98.041875 38.08 98.02125 34 98 C34 113.84 34 129.68 34 146 C22.78 146 11.56 146 0 146 C0 97.82 0 49.64 0 0 Z M34 26 C34 40.85 34 55.7 34 71 C39.94 71.0928125 39.94 71.0928125 46 71.1875 C47.84851563 71.22846802 47.84851563 71.22846802 49.734375 71.27026367 C56.97372794 71.32476981 63.17781244 71.11382848 69.0234375 66.3515625 C74.05030737 59.92995417 76.09560645 54.24605659 76 46 C75.00142731 40.25820702 73.37709559 35.02219594 69 31 C57.69426211 24.01704424 48.23367537 26 34 26 Z " fill="#4D76CF" transform="translate(902,207)"/>
<path d="M0 0 C10.56 0 21.12 0 32 0 C32.03738281 4.97191406 32.07476563 9.94382812 32.11328125 15.06640625 C32.14357335 18.2246434 32.17472921 21.38282504 32.20898438 24.54101562 C32.26322005 29.54888038 32.31433337 34.55663533 32.34643555 39.56469727 C32.37253098 43.60437145 32.41297685 47.64367493 32.46318626 51.68311882 C32.47981295 53.22075715 32.49135331 54.75845953 32.49761391 56.296175 C32.50730122 58.45768812 32.535413 60.6182618 32.56762695 62.77954102 C32.58428154 64.62153831 32.58428154 64.62153831 32.60127258 66.50074768 C33.14295497 71.25458016 34.40836903 75.35348521 37.8125 78.875 C42.60611335 81.34028687 46.77053526 81.33269082 51.91748047 79.74491882 C52.60471191 79.49909561 53.29194336 79.2532724 54 79 C54.69883301 78.78821609 55.39766602 78.57643219 56.11767578 78.35823059 C58.75516053 77.21326081 60.17159383 76.24621428 62 74 C63.23271667 68.4627179 63.07177727 62.97325116 63 57.32421875 C63.00752091 55.67224723 63.01855697 54.02028829 63.03295898 52.36836243 C63.06136788 48.02942654 63.04212032 43.69196769 63.01287842 39.35308838 C62.99147093 34.92214347 63.01522537 30.49146456 63.03515625 26.06054688 C63.06758844 17.37321472 63.04549138 8.68727398 63 0 C73.56 0 84.12 0 95 0 C95 34.32 95 68.64 95 104 C87.08 104 79.16 104 71 104 C67.54602565 100.54602565 66.43624095 99.30872286 65 95 C64.42894531 95.45890625 63.85789062 95.9178125 63.26953125 96.390625 C53.29087683 103.94203916 42.53318119 107.39448857 30 106 C21.12843122 104.42138261 13.43124259 100.33742828 7.6875 93.3125 C1.76318473 84.73869929 -0.13150669 74.95881215 -0.11352539 64.70947266 C-0.11367142 64.00633942 -0.11381744 63.30320618 -0.1139679 62.57876587 C-0.11327584 60.27383245 -0.1055168 57.96898166 -0.09765625 55.6640625 C-0.09578956 54.05838058 -0.09436684 52.45269808 -0.09336853 50.84701538 C-0.08956315 46.63517668 -0.07974988 42.42337284 -0.06866455 38.21154785 C-0.05660221 33.15038269 -0.05203876 28.08920583 -0.04621124 23.0280304 C-0.03653697 15.35199607 -0.0173666 7.67603813 0 0 Z " fill="#4D76CF" transform="translate(620,249)"/>
<path d="M0 0 C4.46564301 -0.12397147 8.93036439 -0.21450992 13.3972168 -0.2746582 C14.91529801 -0.29974109 16.43325918 -0.3338166 17.95092773 -0.37719727 C20.13815965 -0.43813293 22.32379039 -0.46626895 24.51171875 -0.48828125 C25.82615967 -0.51446533 27.14060059 -0.54064941 28.49487305 -0.56762695 C33.09474611 0.17728528 34.24632808 1.24740422 37 5 C38.71555219 8.505351 40.06028184 12.11104039 41.390625 15.77734375 C41.9757486 17.34350182 41.9757486 17.34350182 42.57269287 18.94129944 C43.39248636 21.1436126 44.20568878 23.34838909 45.01269531 25.55541992 C46.24629787 28.92738051 47.50019553 32.29122851 48.7578125 35.65429688 C49.55328463 37.79903399 50.34759488 39.94420248 51.140625 42.08984375 C51.51350647 43.09313217 51.88638794 44.09642059 52.27056885 45.13011169 C53.95108586 49.74160007 55.45177936 54.08928776 56 59 C56.66 59 57.32 59 58 59 C58.13556808 58.26739456 58.27113617 57.53478912 58.41081238 56.77998352 C58.94183762 54.2744295 59.60818017 51.94380155 60.42700195 49.52026367 C60.85798943 48.23819283 60.85798943 48.23819283 61.29768372 46.93022156 C61.6080809 46.01867813 61.91847809 45.1071347 62.23828125 44.16796875 C62.7213398 42.74210197 62.7213398 42.74210197 63.2141571 41.28742981 C63.89592849 39.27887022 64.57938345 37.27088141 65.2644043 35.26342773 C66.30449993 32.21097842 67.33512609 29.15544126 68.36523438 26.09960938 C69.03067154 24.14303234 69.6966692 22.18664581 70.36328125 20.23046875 C70.81976799 18.87226265 70.81976799 18.87226265 71.28547668 17.48661804 C76.18952139 3.20698574 76.18952139 3.20698574 81 0 C84.00268555 -0.22705078 84.00268555 -0.22705078 87.63671875 -0.1953125 C88.93544922 -0.18886719 90.23417969 -0.18242187 91.57226562 -0.17578125 C92.94401307 -0.1590706 94.31575786 -0.14214071 95.6875 -0.125 C97.07095718 -0.11496674 98.45442127 -0.10584149 99.83789062 -0.09765625 C103.22543452 -0.07404967 106.61263072 -0.04112037 110 0 C109.3219168 4.52055466 107.65741299 8.4932322 105.8515625 12.65625 C105.52764023 13.41388641 105.20371796 14.17152283 104.86997986 14.95211792 C104.16444705 16.60087302 103.45673228 18.24869574 102.74710083 19.89569092 C101.2065471 23.47119676 99.67629051 27.05108094 98.14533997 30.63070679 C97.33499559 32.52516316 96.5241028 34.41938504 95.71269226 36.31338501 C91.68554831 45.71767209 87.71263889 55.1445062 83.74316406 64.57324219 C81.37394589 70.19548118 78.99491435 75.81357697 76.61740112 81.43231201 C74.14172606 87.2869857 71.68057785 93.14755855 69.22782898 99.01187134 C67.59367763 102.91238733 65.94944621 106.80860059 64.302948 110.70391846 C63.52507441 112.55034801 62.7514871 114.39858988 61.98245239 116.24871826 C60.91879335 118.80612394 59.84013296 121.35669727 58.7578125 123.90625 C58.45025528 124.65617218 58.14269806 125.40609436 57.82582092 126.17874146 C55.9062663 130.6473187 53.98230811 134.00505295 50 137 C46.77026367 137.56762695 46.77026367 137.56762695 43.16796875 137.48828125 C41.87568359 137.47216797 40.58339844 137.45605469 39.25195312 137.43945312 C37.89711843 137.39768274 36.54230072 137.35535809 35.1875 137.3125 C33.81319134 137.28740069 32.43883884 137.26459036 31.06445312 137.24414062 C27.70852024 137.18526461 24.3548191 137.1030642 21 137 C23.19254571 130.96488544 25.82678692 125.25075 28.77734375 119.55859375 C29.46199602 118.21960932 30.14623475 116.88041335 30.83007812 115.54101562 C31.88459895 113.47705161 32.94705011 111.4195848 34.03735352 109.37426758 C35.10394119 107.36560314 36.13058571 105.34035033 37.15234375 103.30859375 C37.48338608 102.7083287 37.81442841 102.10806366 38.15550232 101.48960876 C39.9813848 97.7589218 40.12267707 95.37369017 38.88916016 91.54125977 C38.28477242 90.01721524 37.65522974 88.50288731 37 87 C36.73085281 86.33725571 36.46170563 85.67451141 36.18440247 84.99168396 C35.36042693 82.9903041 34.49664111 81.01057928 33.62109375 79.03125 C33.29654205 78.2889917 32.97199036 77.5467334 32.63760376 76.78198242 C31.9384157 75.18452231 31.23739643 73.58786264 30.53469849 71.99194336 C29.41778415 69.4552216 28.30591423 66.91633761 27.19506836 64.37695312 C23.54898124 56.04882554 19.88275635 47.72964381 16.20622253 39.41491699 C14.55515462 35.67988909 12.90700043 31.943578 11.25881958 28.20727539 C10.08111469 25.54212512 8.89801068 22.87941728 7.71459961 20.21679688 C6.98789183 18.57171469 6.26139959 16.92653727 5.53515625 15.28125 C5.20569 14.54430908 4.87622375 13.80736816 4.53677368 13.0480957 C2.64920769 8.75517381 1.1856218 4.5388768 0 0 Z " fill="#4C76CF" transform="translate(1017,249)"/>
<path d="M0 0 C0 27.39 0 54.78 0 83 C-21.98312045 94.57006339 -21.98312045 94.57006339 -32.16015625 99.6640625 C-33.84400673 100.50848404 -33.84400673 100.50848404 -35.56187439 101.3699646 C-37.88749607 102.53526827 -40.21363093 103.69954836 -42.5402832 104.86279297 C-45.52199108 106.35457695 -48.501615 107.85037219 -51.48029423 109.34818459 C-54.35096495 110.7903738 -57.22447747 112.22687808 -60.09765625 113.6640625 C-61.16516617 114.20141022 -62.23267609 114.73875793 -63.33253479 115.29238892 C-64.31213669 115.78065155 -65.29173859 116.26891418 -66.30102539 116.77197266 C-67.16305069 117.20369781 -68.02507599 117.63542297 -68.91322327 118.08023071 C-71 119 -71 119 -73 119 C-73 91.61 -73 64.22 -73 36 C-61.140625 30.06 -49.28125 24.12 -37.0625 18 C-33.31269775 16.12054688 -29.56289551 14.24109375 -25.69946289 12.3046875 C-21.13366699 10.01953125 -21.13366699 10.01953125 -18.99876404 8.95166016 C-17.50177332 8.20239493 -16.00517997 7.4523355 -14.50889587 6.70166016 C-12.24781906 5.56748375 -9.9855104 4.43580147 -7.72290039 3.3046875 C-7.0519764 2.96742645 -6.38105242 2.63016541 -5.6897974 2.28268433 C-1.11402634 0 -1.11402634 0 0 0 Z " fill="#4DAACF" transform="translate(332,336)"/>
<path d="M0 0 C0 27.06 0 54.12 0 82 C-21.85779077 93.5041004 -21.85779077 93.5041004 -28.859375 96.88671875 C-29.66256165 97.27769241 -30.46574829 97.66866608 -31.29327393 98.07148743 C-32.95214164 98.87827907 -34.6116983 99.68365586 -36.27197266 100.48754883 C-38.76497673 101.69475228 -41.25569416 102.90657466 -43.74609375 104.11914062 C-45.38789115 104.9169336 -47.02981391 105.71446865 -48.671875 106.51171875 C-49.38792908 106.85982101 -50.10398315 107.20792328 -50.84173584 107.5665741 C-58.19292203 111.12359801 -65.5969074 114.54522345 -73 118 C-73 90.94 -73 63.88 -73 36 C-51.01687955 24.42993661 -51.01687955 24.42993661 -40.83984375 19.3359375 C-39.71727676 18.77298981 -38.59470978 18.21004211 -37.43812561 17.6300354 C-35.11250393 16.46473173 -32.78636907 15.30045164 -30.4597168 14.13720703 C-27.47800892 12.64542305 -24.498385 11.14962781 -21.51970577 9.65181541 C-18.64903505 8.2096262 -15.77552253 6.77312192 -12.90234375 5.3359375 C-11.30107887 4.52991592 -11.30107887 4.52991592 -9.66746521 3.70761108 C-8.68786331 3.21934845 -7.70826141 2.73108582 -6.69897461 2.22802734 C-5.83694931 1.79630219 -4.97492401 1.36457703 -4.08677673 0.91976929 C-2 0 -2 0 0 0 Z " fill="#4CABCF" transform="translate(332,227)"/>
<path d="M0 0 C0 27.39 0 54.78 0 83 C-9.85875 87.95 -19.7175 92.9 -29.875 98 C-32.98921387 99.56621094 -36.10342773 101.13242187 -39.31201172 102.74609375 C-41.76774481 103.97687947 -44.22362646 105.20736885 -46.6796875 106.4375 C-47.31979767 106.76016846 -47.95990784 107.08283691 -48.61941528 107.4152832 C-50.4994822 108.36260943 -52.38199244 109.30490312 -54.26513672 110.24609375 C-55.32658905 110.77904053 -56.38804138 111.3119873 -57.48165894 111.86108398 C-60 113 -60 113 -62 113 C-63.18788198 96.50491282 -63.12051923 80.01719427 -63.06866455 63.4909668 C-63.05826596 59.81624946 -63.05383223 56.14152481 -63.04882812 52.46679688 C-63.03823913 45.3111806 -63.02126928 38.1555932 -63 31 C-50.32321415 24.2638268 -37.57226293 17.69291341 -24.73217773 11.2734375 C-21.87850253 9.84547807 -19.02811875 8.41107758 -16.17773438 6.9765625 C-14.35696541 6.06471554 -12.53600932 5.1532421 -10.71484375 4.2421875 C-9.44168556 3.60021927 -9.44168556 3.60021927 -8.14280701 2.94528198 C-7.36341263 2.55712311 -6.58401825 2.16896423 -5.78100586 1.76904297 C-5.09662949 1.42614227 -4.41225311 1.08324158 -3.70713806 0.72994995 C-2 0 -2 0 0 0 Z " fill="#4CABCF" transform="translate(419,293)"/>
<path d="M0 0 C0 26.73 0 53.46 0 81 C-15.30602422 89.05580222 -30.62900448 97.07006054 -46 105 C-46.83192871 105.43103027 -47.66385742 105.86206055 -48.52099609 106.30615234 C-50.51077879 107.33556257 -52.50421563 108.35728938 -54.5 109.375 C-56.03140625 110.16003906 -56.03140625 110.16003906 -57.59375 110.9609375 C-60 112 -60 112 -63 112 C-63 84.94 -63 57.88 -63 30 C-55.719375 26.349375 -48.43875 22.69875 -40.9375 18.9375 C-37.54005493 17.23194946 -37.54005493 17.23194946 -34.07397461 15.49194336 C-3.16596094 0 -3.16596094 0 0 0 Z " fill="#4DAACF" transform="translate(419,184)"/>
<path d="M0 0 C1.16184814 0.58793335 1.16184814 0.58793335 2.34716797 1.18774414 C3.2258252 1.62932861 4.10448242 2.07091309 5.00976562 2.52587891 C5.94353027 3.003396 6.87729492 3.48091309 7.83935547 3.97290039 C8.81565918 4.46653076 9.79196289 4.96016113 10.79785156 5.46875 C17.77986963 9.0118552 24.71715206 12.637425 31.62841797 16.31640625 C35.82610284 18.54375832 40.04627099 20.71036597 44.30810547 22.81274414 C45.23155762 23.26834717 46.15500977 23.7239502 47.10644531 24.19335938 C48.8957641 25.07203414 50.68767466 25.94545529 52.48242188 26.81298828 C53.28341309 27.20607178 54.0844043 27.59915527 54.90966797 28.00415039 C55.97725342 28.52138672 55.97725342 28.52138672 57.06640625 29.04907227 C58.71435547 30.03540039 58.71435547 30.03540039 59.71435547 32.03540039 C51.22215081 36.37422408 42.7213906 40.69565866 34.20923424 44.99520969 C30.25686344 46.99226098 26.30768694 48.99514875 22.36523438 51.01171875 C18.55970845 52.95797492 14.74655498 54.88844525 10.92763138 56.80827141 C9.47277505 57.5430847 8.02074477 58.28352136 6.57166672 59.02966499 C4.53969856 60.0747296 2.49855429 61.0992551 0.45410156 62.11962891 C-0.70505768 62.70809097 -1.86421692 63.29655304 -3.0585022 63.90284729 C-7.83921462 65.5806198 -10.71054437 64.69664822 -15.28500366 62.77622986 C-16.33757355 62.24550369 -17.39014343 61.71477753 -18.47460938 61.16796875 C-19.35374496 60.72883904 -19.35374496 60.72883904 -20.25064087 60.28083801 C-22.16985037 59.31984977 -24.08315316 58.34768398 -25.99658203 57.37524414 C-27.33287 56.70336653 -28.66951504 56.03219869 -30.00650024 55.36170959 C-33.51171163 53.60149498 -37.01200945 51.83172133 -40.51135254 50.05987549 C-44.08813234 48.25096791 -47.66950118 46.45119478 -51.25048828 44.65063477 C-58.26671628 41.12111926 -65.27777695 37.58148634 -72.28564453 34.03540039 C-72.28564453 33.37540039 -72.28564453 32.71540039 -72.28564453 32.03540039 C-71.32489014 31.54249512 -70.36413574 31.04958984 -69.37426758 30.54174805 C-47.79148082 19.48780081 -47.79148082 19.48780081 -26.28564453 8.28540039 C-25.55482666 7.90230713 -24.82400879 7.51921387 -24.07104492 7.12451172 C-19.13453034 4.52350245 -14.28883555 1.78488552 -9.51220703 -1.10131836 C-6.04997841 -2.44369121 -3.34343816 -1.41101518 0 0 Z " fill="#4CABCF" transform="translate(254.28564453125,175.964599609375)"/>
<path d="M0 0 C0.90355225 0.48581543 1.80710449 0.97163086 2.73803711 1.47216797 C3.78113037 2.02437012 4.82422363 2.57657227 5.89892578 3.14550781 C7.56532104 4.0458374 7.56532104 4.0458374 9.26538086 4.96435547 C11.65749798 6.23214928 14.050612 7.4978783 16.44506836 8.76123047 C17.0660289 9.09009247 17.68698944 9.41895447 18.32676697 9.75778198 C25.78668283 13.69838365 33.33734271 17.45630946 40.89038086 21.21435547 C42.22837867 21.88113312 43.56635131 22.54796128 44.90429688 23.21484375 C48.002761 24.75849159 51.10242688 26.29970746 54.20288086 27.83935547 C52.81420486 32.00538348 50.87280037 32.32486738 46.99194336 34.28076172 C46.03865143 34.766698 46.03865143 34.766698 45.06610107 35.26245117 C42.99110091 36.31787557 40.90957234 37.35970075 38.82788086 38.40185547 C37.40105764 39.12529246 35.974789 39.84982427 34.54907227 40.57543945 C31.72518632 42.01204624 28.89937247 43.44473755 26.07202148 44.87451172 C21.21505766 47.33526287 16.39164968 49.85779112 11.57788086 52.40185547 C10.83594482 52.79034668 10.09400879 53.17883789 9.32958984 53.57910156 C5.97673688 55.34038868 2.65672028 57.13742693 -0.62133789 59.03466797 C-1.21543457 59.37296631 -1.80953125 59.71126465 -2.42163086 60.05981445 C-3.9674214 60.94539101 -5.50203348 61.85040627 -7.03540039 62.75732422 C-11.35019241 64.44784386 -14.60835578 63.33841401 -18.79647827 61.58018494 C-19.84904816 61.04945877 -20.90161804 60.5187326 -21.98608398 59.97192383 C-22.86521957 59.53279411 -22.86521957 59.53279411 -23.76211548 59.08479309 C-25.68132498 58.12380485 -27.59462777 57.15163906 -29.50805664 56.17919922 C-30.84434461 55.50732161 -32.18098965 54.83615376 -33.51797485 54.16566467 C-37.02318624 52.40545006 -40.52348406 50.6356764 -44.02282715 48.86383057 C-47.59960695 47.05492299 -51.18097579 45.25514985 -54.76196289 43.45458984 C-61.77819089 39.92507434 -68.78925156 36.38544141 -75.79711914 32.83935547 C-75.79711914 32.17935547 -75.79711914 31.51935547 -75.79711914 30.83935547 C-67.32340287 26.49812801 -58.84004331 22.17654066 -50.34381008 17.87954617 C-46.39874687 15.88355287 -42.45730499 13.88101824 -38.5234375 11.86303711 C-34.72528181 9.91498423 -30.91854335 7.98477052 -27.10527229 6.06648445 C-25.65366695 5.33238155 -24.20523934 4.5919591 -22.76016045 3.84509087 C-20.73168248 2.79807521 -18.69295386 1.77432685 -16.65039062 0.75512695 C-15.493452 0.16666489 -14.33651337 -0.42179718 -13.14451599 -1.02809143 C-8.29584711 -2.6685826 -4.65559618 -1.93180625 0 0 Z " fill="#4CABCF" transform="translate(165.797119140625,131.16064453125)"/>
<path d="M0 0 C0.60559753 0.30265274 1.21119507 0.60530548 1.83514404 0.91712952 C3.81731145 1.90890456 5.79659147 2.90630017 7.77587891 3.90380859 C9.15718339 4.59632778 10.53866604 5.2884917 11.9203186 5.98031616 C15.54208813 7.79500429 19.16142842 9.61448594 22.78027344 11.43499756 C26.47916833 13.29470617 30.1803549 15.14984198 33.88134766 17.00537109 C41.13228833 20.64154026 48.38066748 24.28277986 55.62744141 27.92724609 C55.62744141 28.58724609 55.62744141 29.24724609 55.62744141 29.92724609 C48.17831679 33.74456882 40.72065615 37.54443405 33.2515316 41.32244968 C29.78341439 43.07736586 26.31851967 44.83809701 22.86035156 46.61254883 C19.52167232 48.32541213 16.17537345 50.02243095 12.82326126 51.70884514 C11.54702756 52.35434171 10.27361937 53.00545691 9.00318527 53.66229439 C7.2206815 54.58266147 5.42692671 55.48113803 3.6328125 56.37866211 C2.6157724 56.89606461 1.5987323 57.4134671 0.5508728 57.94654846 C-5.1183394 59.84834886 -9.41642799 57.65688864 -14.5456543 55.10742188 C-15.42238045 54.67552048 -15.42238045 54.67552048 -16.31681824 54.2348938 C-18.23145271 53.2888517 -20.14001927 52.3312654 -22.04833984 51.37255859 C-23.38237963 50.70815756 -24.71662668 50.04417254 -26.05107117 49.38058472 C-28.83841372 47.99210444 -31.62269556 46.59770743 -34.4050293 45.19921875 C-37.97463725 43.40579155 -41.55216653 41.62884673 -45.13221455 39.85637093 C-47.88519321 38.49084256 -50.63345046 37.11602598 -53.38039207 35.73839951 C-54.69820353 35.0790832 -56.01756258 34.42285091 -57.33846474 33.76974869 C-59.17941039 32.85795691 -61.01353742 31.93369843 -62.84643555 31.00585938 C-64.41479912 30.22095627 -64.41479912 30.22095627 -66.0148468 29.42019653 C-68.37255859 27.92724609 -68.37255859 27.92724609 -69.37255859 24.92724609 C-67.16299645 23.75523279 -64.95334373 22.58339069 -62.74365234 21.41162109 C-62.05060501 21.04399658 -61.35755768 20.67637207 -60.64350891 20.29760742 C-56.81040407 18.2650904 -52.97546934 16.23614134 -49.13720703 14.21337891 C-42.13231717 10.51991639 -35.13771858 6.81657006 -28.20458984 2.98974609 C-27.16310791 2.42288086 -26.12162598 1.85601562 -25.04858398 1.27197266 C-23.14177237 0.23273248 -21.2432608 -0.82193011 -19.35473633 -1.89404297 C-18.50983643 -2.35004883 -17.66493652 -2.80605469 -16.79443359 -3.27587891 C-16.07868164 -3.67452148 -15.36292969 -4.07316406 -14.62548828 -4.48388672 C-9.65747008 -5.78241943 -4.36612345 -2.19197218 0 0 Z " fill="#4DAACF" transform="translate(346.37255859375,134.07275390625)"/>
<path d="M0 0 C1.11748123 0.55405014 2.23496246 1.10810028 3.38630676 1.67893982 C4.58933809 2.28569262 5.79218938 2.8928025 6.99487305 3.50024414 C8.239173 4.12231658 9.48374011 4.74385488 10.7285614 5.36488342 C13.32747481 6.66364997 15.92352345 7.96792426 18.51757812 9.27636719 C21.84637766 10.9550118 25.18130431 12.62103693 28.51835346 14.2832098 C31.08473848 15.56293106 33.64814972 16.84851496 36.21065331 18.13598824 C37.43985289 18.75284847 38.6698953 19.36803212 39.90078163 19.9815197 C41.61518597 20.83727155 43.3252869 21.70162866 45.03515625 22.56640625 C46.00967239 23.05636581 46.98418854 23.54632538 47.98823547 24.0511322 C50.1940918 25.34790039 50.1940918 25.34790039 51.1940918 27.34790039 C50.27934082 27.83033203 49.36458984 28.31276367 48.42211914 28.80981445 C44.91950027 30.65756653 41.41810174 32.50762262 37.91687012 34.35800171 C35.57486029 35.59485396 33.23166246 36.82943509 30.88842773 38.06396484 C23.96461648 41.71794324 17.05900842 45.38786263 10.2487793 49.25024414 C9.25185059 49.81259766 8.25492187 50.37495117 7.2277832 50.9543457 C5.41733105 51.98262917 3.61439221 53.02429466 1.82055664 54.08129883 C1.02085449 54.53408203 0.22115234 54.98686523 -0.6027832 55.45336914 C-1.27664062 55.8467749 -1.95049805 56.24018066 -2.64477539 56.64550781 C-7.65958133 58.27537639 -12.35383586 55.82045216 -16.8112793 53.57226562 C-18.55240494 52.70147621 -18.55240494 52.70147621 -20.32870483 51.81309509 C-21.57900588 51.17773344 -22.82921745 50.5421957 -24.0793457 49.90649414 C-25.37079304 49.25703663 -26.66259764 48.60828911 -27.95474243 47.96022034 C-31.34158876 46.25918997 -34.72351762 44.54860231 -38.10449219 42.8359375 C-41.56062381 41.08735027 -45.02134778 39.34790252 -48.48168945 37.60766602 C-55.26094091 34.19664182 -62.03502032 30.77550166 -68.8059082 27.34790039 C-67.50647182 23.44959124 -66.25584968 23.24970143 -62.64697266 21.42114258 C-61.54525223 20.85756042 -60.4435318 20.29397827 -59.3084259 19.71331787 C-58.09569174 19.10644781 -56.88260384 18.50028421 -55.66918945 17.89477539 C-54.42925065 17.26931266 -53.18952261 16.64343195 -51.94999695 16.01715088 C-49.34816281 14.70577017 -46.74252786 13.40232853 -44.13427734 12.10375977 C-40.79743355 10.44117346 -37.47302046 8.75525481 -34.15136433 7.06257248 C-31.59264172 5.76288323 -29.026675 4.47804864 -26.45842552 3.19730377 C-25.22994456 2.58196178 -24.0039876 1.9615532 -22.78069496 1.33596039 C-21.06545108 0.46103975 -19.33881001 -0.39142667 -17.61181641 -1.24291992 C-16.6333223 -1.73350891 -15.65482819 -2.2240979 -14.64668274 -2.72955322 C-9.16894691 -4.5084573 -4.94284582 -2.47100321 0 0 Z " fill="#4DABCF" transform="translate(255.805908203125,88.652099609375)"/>
</svg>
