<?xml version="1.0" encoding="UTF-8"?>
<svg version="1.1" xmlns="http://www.w3.org/2000/svg" width="353" height="143">
<path d="M0 0 C116.49 0 232.98 0 353 0 C353 47.19 353 94.38 353 143 C236.51 143 120.02 143 0 143 C0 95.81 0 48.62 0 0 Z " fill="#FDFDFE" transform="translate(0,0)"/>
<path d="M0 0 C4.05987566 3.59852615 6.21340056 7.30003595 7.1328125 12.67578125 C7.42364 18.28875202 6.21176263 22.96443592 2.75 27.4375 C-0.81133578 30.68367332 -4.45289779 32.70748026 -9.3125 33 C-13.25 32.4375 -13.25 32.4375 -20.25 28.4375 C-20.25 34.3775 -20.25 40.3175 -20.25 46.4375 C-23.22 46.4375 -26.19 46.4375 -29.25 46.4375 C-29.25 30.5975 -29.25 14.7575 -29.25 -1.5625 C-26.61 -1.5625 -23.97 -1.5625 -21.25 -1.5625 C-20.92 -0.2425 -20.59 1.0775 -20.25 2.4375 C-19.5075 1.798125 -18.765 1.15875 -18 0.5 C-12.24901298 -3.81324026 -6.28547033 -3.02186073 0 0 Z " fill="#160C56" transform="translate(134.25,53.5625)"/>
<path d="M0 0 C2.97 0 5.94 0 9 0 C9 15.18 9 30.36 9 46 C6.36 46 3.72 46 1 46 C0.67 44.68 0.34 43.36 0 42 C-1.175625 42.9590625 -1.175625 42.9590625 -2.375 43.9375 C-6.60947445 46.73045123 -10.98959003 47.31761711 -16 47 C-20.32649487 45.75213051 -22.59083018 43.49310209 -25.4375 40.0625 C-28.08237239 34.77275522 -27.73103754 28.73015288 -27 23 C-25.3125 19.4375 -25.3125 19.4375 -23 17 C-22.278125 16.236875 -21.55625 15.47375 -20.8125 14.6875 C-16.92521081 12.35512649 -13.52337952 11.64801517 -9 12 C-6.0440439 13.05220292 -3.71308577 14.37214854 -1 16 C-0.67 10.72 -0.34 5.44 0 0 Z " fill="#150B56" transform="translate(254,39)"/>
<path d="M0 0 C1.65625 1.08984375 1.65625 1.08984375 4.09375 3.02734375 C4.42375 1.70734375 4.75375 0.38734375 5.09375 -0.97265625 C7.73375 -0.97265625 10.37375 -0.97265625 13.09375 -0.97265625 C13.09375 9.91734375 13.09375 20.80734375 13.09375 32.02734375 C10.45375 32.02734375 7.81375 32.02734375 5.09375 32.02734375 C4.76375 30.70734375 4.43375 29.38734375 4.09375 28.02734375 C3.31 28.66671875 2.52625 29.30609375 1.71875 29.96484375 C-2.75783391 33.48215968 -6.32805775 33.69522174 -11.90625 33.02734375 C-16.77604684 30.63838681 -19.22538003 27.69404333 -21.90625 23.02734375 C-23.5791247 18.00871964 -23.93972349 12.74774257 -22.03515625 7.734375 C-17.16447147 -0.77734626 -9.28707703 -4.73869299 0 0 Z " fill="#130A54" transform="translate(290.90625,52.97265625)"/>
<path d="M0 0 C2.65683189 1.49748707 4.84652751 2.84652751 7 5 C7.33 3.68 7.66 2.36 8 1 C10.64 1 13.28 1 16 1 C16 11.89 16 22.78 16 34 C13.36 34 10.72 34 8 34 C7.67 33.01 7.34 32.02 7 31 C6.2575 31.474375 5.515 31.94875 4.75 32.4375 C0.14561241 35.05362931 -3.6876359 35.45796242 -9 35 C-13.87499802 32.37500106 -16.58616711 29.60442901 -19.1875 24.8125 C-20.78318572 19.28897251 -20.77766343 14.08134493 -18.5 8.75 C-14.43384135 1.59126998 -7.94849011 -1.15381308 0 0 Z " fill="#160D56" transform="translate(166,51)"/>
<path d="M0 0 C3.3 0 6.6 0 10 0 C10 23.43 10 46.86 10 71 C6.7 71 3.4 71 0 71 C0 47.57 0 24.14 0 0 Z " fill="#0E0551" transform="translate(16,48)"/>
<path d="M0 0 C3.3 0 6.6 0 10 0 C10 23.43 10 46.86 10 71 C6.7 71 3.4 71 0 71 C0 47.57 0 24.14 0 0 Z " fill="#0E0452" transform="translate(65,24)"/>
<path d="M0 0 C2.70552388 2.19823815 4.44778333 3.89556667 6 7 C6.08510205 8.9593604 6.10717656 10.92162794 6.09765625 12.8828125 C6.09443359 14.04941406 6.09121094 15.21601562 6.08789062 16.41796875 C6.07532227 18.25294922 6.07532227 18.25294922 6.0625 20.125 C6.05798828 21.35605469 6.05347656 22.58710937 6.04882812 23.85546875 C6.0370133 26.90369392 6.02054028 29.95182314 6 33 C3.03 33 0.06 33 -3 33 C-3.01981934 32.28344238 -3.03963867 31.56688477 -3.06005859 30.82861328 C-3.15509519 27.5936937 -3.26486019 24.35943906 -3.375 21.125 C-3.4059375 19.99707031 -3.436875 18.86914062 -3.46875 17.70703125 C-3.50742188 16.63066406 -3.54609375 15.55429688 -3.5859375 14.4453125 C-3.63306885 12.95281982 -3.63306885 12.95281982 -3.68115234 11.43017578 C-3.77247083 8.82145483 -3.77247083 8.82145483 -6 7 C-9.81401089 6.40670942 -11.4591503 6.62188384 -14.6484375 8.8515625 C-18.02628083 13.37405705 -17.77920519 17.30405925 -17.8125 22.8125 C-17.83763672 23.79154297 -17.86277344 24.77058594 -17.88867188 25.77929688 C-17.94738663 28.18660197 -17.9837798 30.59209562 -18 33 C-20.64 33 -23.28 33 -26 33 C-26 22.11 -26 11.22 -26 0 C-23.36 0 -20.72 0 -18 0 C-17.67 1.32 -17.34 2.64 -17 4 C-16.236875 3.360625 -15.47375 2.72125 -14.6875 2.0625 C-9.9189755 -1.59706531 -5.64069682 -1.47449794 0 0 Z " fill="#140C56" transform="translate(216,52)"/>
<path d="M0 0 C0.99 0.495 1.98 0.99 3 1.5 C2.67 3.15 2.34 4.8 2 6.5 C-2.29 6.17 -6.58 5.84 -11 5.5 C-11.33 6.82 -11.66 8.14 -12 9.5 C-11.10796875 9.81453125 -10.2159375 10.1290625 -9.296875 10.453125 C-7.54117187 11.09507813 -7.54117187 11.09507813 -5.75 11.75 C-4.00976562 12.37648438 -4.00976562 12.37648438 -2.234375 13.015625 C1.00886553 14.50406872 2.82397089 15.69545763 5 18.5 C5.59338457 23.17290346 5.69374982 25.31805585 3.3125 29.375 C-1.0086531 33.34578933 -4.94206731 33.87470597 -10.640625 33.76953125 C-14.41855386 33.33794666 -17.52477332 32.01646255 -21 30.5 C-20.67 28.52 -20.34 26.54 -20 24.5 C-19.236875 24.83 -18.47375 25.16 -17.6875 25.5 C-12.74825349 26.83945668 -8.08536891 26.66287658 -3 26.5 C-3.495 24.025 -3.495 24.025 -4 21.5 C-4.66386719 21.32984375 -5.32773437 21.1596875 -6.01171875 20.984375 C-11.14269378 19.57616579 -15.13937572 18.36062428 -19 14.5 C-20.60964787 11.28070427 -20.60686242 7.98112288 -20 4.5 C-14.76359169 -2.1516538 -7.62205127 -3.28429851 0 0 Z " fill="#140B55" transform="translate(332,52.5)"/>
<path d="M0 0 C3.26244817 0.9029402 4.89772796 2.94405434 6.93359375 5.53515625 C8.68608008 9.04012891 7.75174603 12.80515492 6.93359375 16.53515625 C5.30859375 19.53515625 5.30859375 19.53515625 2.93359375 21.53515625 C-0.98549211 22.67525396 -3.09799129 22.94404257 -6.87890625 21.34765625 C-9.68579819 19.02194579 -10.8164957 16.98200681 -11.4375 13.38671875 C-11.5573325 9.36880541 -11.43426139 6.32911084 -9.06640625 2.97265625 C-5.72356948 0.25660138 -4.18769124 -0.30873338 0 0 Z " fill="#F8F7F9" transform="translate(288.06640625,57.46484375)"/>
<path d="M0 0 C2.88707375 0.76744998 4.66740363 2.1933499 6.34375 4.6640625 C7.91825477 8.34795165 7.99924285 11.68390816 7.16015625 15.57421875 C5.85813025 18.6205858 4.90936152 19.38607578 2.16015625 21.57421875 C-0.98783499 22.29680037 -3.68921576 22.27501264 -6.83984375 21.57421875 C-9.8720005 19.37590511 -10.65638773 18.12458681 -11.83984375 14.57421875 C-12.28271339 10.07171075 -12.5311458 6.87739972 -9.90234375 3.07421875 C-6.3413006 0.16724475 -4.49532243 -0.33771204 0 0 Z " fill="#F8F8FA" transform="translate(166.83984375,57.42578125)"/>
<path d="M0 0 C2.88707375 0.76744998 4.66740363 2.1933499 6.34375 4.6640625 C7.91825477 8.34795165 7.99924285 11.68390816 7.16015625 15.57421875 C5.85813025 18.6205858 4.90936152 19.38607578 2.16015625 21.57421875 C-1.00847376 22.35228092 -3.67568573 22.38447977 -6.83984375 21.57421875 C-10.36717653 18.22325261 -11.73405408 15.63211544 -12.21484375 10.82421875 C-12.15202475 7.69469018 -11.69417136 5.66036169 -9.90234375 3.07421875 C-6.3413006 0.16724475 -4.49532243 -0.33771204 0 0 Z " fill="#F8F8FA" transform="translate(124.83984375,57.42578125)"/>
<path d="M0 0 C3 1.875 3 1.875 5 5 C5.79532556 9.66489029 5.57203861 13.62710735 3.75 18 C1.81586503 20.21043996 0.83355913 21.21290024 -2 22 C-6.00815277 21.92842584 -8.23905612 21.58534144 -11.4375 19.125 C-13.78100349 14.43799302 -13.86991033 10.13478045 -13 5 C-9.74840818 -0.18222447 -5.78952605 -1.40069179 0 0 Z " fill="#F9F9FA" transform="translate(249,58)"/>
<path d="M0 0 C3.63 0 7.26 0 11 0 C11 7.26 11 14.52 11 22 C7.37 22 3.74 22 0 22 C0 14.74 0 7.48 0 0 Z " fill="#120653" transform="translate(32,74)"/>
<path d="M0 0 C3.63 0 7.26 0 11 0 C11 6.93 11 13.86 11 21 C7.37 21 3.74 21 0 21 C0 14.07 0 7.14 0 0 Z " fill="#1D155B" transform="translate(32,30)"/>
<path d="M0 0 C3.3 0 6.6 0 10 0 C10 6.93 10 13.86 10 21 C6.7 21 3.4 21 0 21 C0 14.07 0 7.14 0 0 Z " fill="#0D0451" transform="translate(49,92)"/>
<path d="M0 0 C3.3 0 6.6 0 10 0 C10 6.93 10 13.86 10 21 C6.7 21 3.4 21 0 21 C0 14.07 0 7.14 0 0 Z " fill="#0F0652" transform="translate(49,48)"/>
<path d="M0 0 C2.97 0 5.94 0 9 0 C9 15.18 9 30.36 9 46 C6.36 46 3.72 46 1 46 C1 44.35 1 42.7 1 41 C1.33 42.32 1.66 43.64 2 45 C3.65 45 5.3 45 7 45 C7 30.81 7 16.62 7 2 C5.02 2 3.04 2 1 2 C1 6.62 1 11.24 1 16 C0.67 16 0.34 16 0 16 C0 10.72 0 5.44 0 0 Z " fill="#231D61" transform="translate(254,39)"/>
<path d="M0 0 C3.63 0 7.26 0 11 0 C11 3.63 11 7.26 11 11 C7.37 11 3.74 11 0 11 C0 7.37 0 3.74 0 0 Z " fill="#FFD026" transform="translate(32,57)"/>
<path d="M0 0 C3.63 0 7.26 0 11 0 C11 7.26 11 14.52 11 22 C7.37 22 3.74 22 0 22 C0 14.74 0 7.48 0 0 Z M2 1 C2 7.27 2 13.54 2 20 C4.31 20 6.62 20 9 20 C9 13.73 9 7.46 9 1 C6.69 1 4.38 1 2 1 Z " fill="#38366F" transform="translate(32,74)"/>
<path d="M0 0 C3.3 0 6.6 0 10 0 C10 3.3 10 6.6 10 10 C6.7 10 3.4 10 0 10 C0 6.7 0 3.4 0 0 Z " fill="#E70888" transform="translate(49,75)"/>
</svg>
